<svg width="256" height="79" viewBox="0 0 256 79" fill="none" xmlns="http://www.w3.org/2000/svg">
<circle cx="82.5" cy="39.5" r="14.5" transform="rotate(-180 82.5 39.5)" fill="#0087E2"/>
<path d="M85.7546 46L82.4148 35.5014H82.2866L78.94 46H75.7013L80.4648 32.1818H84.2298L89 46H85.7546Z" fill="white"/>
<path d="M110.96 45H107.5L112.772 29.7273H116.933L122.198 45H118.738L114.912 33.2173H114.793L110.96 45ZM110.744 38.9968H118.917V41.5174H110.744V38.9968ZM123.977 45V33.5455H127.004V35.5664H127.139C127.377 34.8952 127.775 34.3658 128.332 33.978C128.889 33.5902 129.555 33.3963 130.33 33.3963C131.116 33.3963 131.785 33.5927 132.336 33.9854C132.888 34.3732 133.256 34.9002 133.44 35.5664H133.559C133.793 34.9102 134.216 34.3857 134.827 33.9929C135.444 33.5952 136.172 33.3963 137.012 33.3963C138.081 33.3963 138.949 33.7369 139.615 34.418C140.286 35.0941 140.622 36.0536 140.622 37.2965V45H137.452V37.9229C137.452 37.2866 137.283 36.8093 136.945 36.4911C136.607 36.1729 136.184 36.0138 135.677 36.0138C135.101 36.0138 134.651 36.1978 134.328 36.5657C134.004 36.9286 133.843 37.4084 133.843 38.005V45H130.763V37.8558C130.763 37.294 130.601 36.8466 130.278 36.5135C129.96 36.1804 129.54 36.0138 129.018 36.0138C128.665 36.0138 128.347 36.1033 128.063 36.2823C127.785 36.4563 127.564 36.7024 127.4 37.0206C127.236 37.3338 127.154 37.7017 127.154 38.1243V45H123.977ZM143.131 49.2955V33.5455H146.263V35.4695H146.405C146.544 35.1612 146.745 34.848 147.009 34.5298C147.277 34.2067 147.625 33.9382 148.053 33.7244C148.485 33.5057 149.022 33.3963 149.664 33.3963C150.499 33.3963 151.27 33.6151 151.975 34.0526C152.681 34.4851 153.246 35.1388 153.668 36.0138C154.091 36.8839 154.302 37.9751 154.302 39.2876C154.302 40.5653 154.096 41.6442 153.683 42.5241C153.276 43.3991 152.719 44.0629 152.013 44.5153C151.312 44.9627 150.526 45.1864 149.656 45.1864C149.04 45.1864 148.515 45.0845 148.083 44.8807C147.655 44.6768 147.305 44.4208 147.031 44.1126C146.758 43.7994 146.549 43.4837 146.405 43.1655H146.308V49.2955H143.131ZM146.241 39.2727C146.241 39.9538 146.335 40.5479 146.524 41.055C146.713 41.5621 146.987 41.9574 147.344 42.2408C147.702 42.5192 148.137 42.6584 148.65 42.6584C149.167 42.6584 149.604 42.5167 149.962 42.2333C150.32 41.945 150.591 41.5472 150.775 41.0401C150.964 40.5281 151.058 39.9389 151.058 39.2727C151.058 38.6115 150.966 38.0298 150.782 37.5277C150.598 37.0256 150.327 36.6328 149.969 36.3494C149.612 36.0661 149.172 35.9244 148.65 35.9244C148.132 35.9244 147.695 36.0611 147.337 36.3345C146.984 36.608 146.713 36.9957 146.524 37.4979C146.335 38 146.241 38.5916 146.241 39.2727ZM159.597 29.7273V45H156.42V29.7273H159.597ZM162.142 45V33.5455H165.319V45H162.142ZM163.738 32.0689C163.265 32.0689 162.86 31.9123 162.522 31.5991C162.189 31.2809 162.022 30.9006 162.022 30.4581C162.022 30.0206 162.189 29.6452 162.522 29.332C162.86 29.0138 163.265 28.8548 163.738 28.8548C164.21 28.8548 164.613 29.0138 164.946 29.332C165.284 29.6452 165.453 30.0206 165.453 30.4581C165.453 30.9006 165.284 31.2809 164.946 31.5991C164.613 31.9123 164.21 32.0689 163.738 32.0689ZM174.023 33.5455V35.9318H166.954V33.5455H174.023ZM168.572 45V32.7177C168.572 31.8874 168.733 31.1989 169.057 30.652C169.385 30.1051 169.832 29.695 170.399 29.4215C170.966 29.1481 171.61 29.0114 172.33 29.0114C172.818 29.0114 173.263 29.0486 173.665 29.1232C174.073 29.1978 174.376 29.2649 174.575 29.3246L174.008 31.7109C173.884 31.6712 173.73 31.6339 173.546 31.5991C173.367 31.5643 173.183 31.5469 172.994 31.5469C172.527 31.5469 172.201 31.6562 172.017 31.875C171.833 32.0888 171.741 32.3896 171.741 32.7773V45H168.572ZM177.925 49.2955C177.523 49.2955 177.145 49.2631 176.792 49.1985C176.444 49.1388 176.155 49.0618 175.927 48.9673L176.643 46.5959C177.016 46.7102 177.351 46.7724 177.649 46.7823C177.953 46.7923 178.214 46.7227 178.432 46.5735C178.656 46.4244 178.838 46.1708 178.977 45.8129L179.163 45.3281L175.054 33.5455H178.395L180.767 41.9574H180.886L183.28 33.5455H186.643L182.191 46.2379C181.977 46.8544 181.686 47.3913 181.318 47.8487C180.956 48.3111 180.496 48.6665 179.939 48.9151C179.382 49.1687 178.711 49.2955 177.925 49.2955Z" fill="#0087E2"/>
</svg>
