<svg width="565" height="450" viewBox="0 0 565 450" fill="none" xmlns="http://www.w3.org/2000/svg">
<g clip-path="url(#clip0_4896_299519)">
<path d="M328.309 433.733C327.896 432.127 327.107 430.642 326.008 429.401C324.91 428.159 323.532 427.196 321.989 426.59C320.43 426.062 318.729 426.146 317.231 426.826C315.732 427.505 314.548 428.73 313.919 430.251C311.027 427.858 306.617 429.769 304.296 432.715C300.546 437.5 303.439 445.339 304.063 445.839C304.842 446.209 305.704 446.369 306.563 446.304L334.612 446.143C337.158 445.977 339.678 445.534 342.128 444.822C346.913 442.911 350.163 434.697 347.074 430.536C344.985 427.715 340.843 427.126 337.504 428.197C334.1 429.375 330.971 431.234 328.309 433.661" fill="#6CDD6C"/>
<path d="M306.17 447.268C305.223 447.325 304.282 447.088 303.474 446.589C302.385 445.697 299.582 437.25 303.474 432.179C305.076 430.092 307.425 428.709 310.027 428.322C311.191 428.175 312.372 428.381 313.419 428.912C314.063 427.787 315.026 426.88 316.186 426.304C318.035 425.336 320.191 425.137 322.185 425.751C323.659 426.29 324.998 427.142 326.111 428.249C327.224 429.356 328.083 430.69 328.631 432.161C331.159 430.067 334.044 428.446 337.147 427.376C340.486 426.304 345.235 426.697 347.734 430.054C348.477 431.204 348.945 432.509 349.103 433.868C349.261 435.227 349.104 436.604 348.645 437.893C348.238 439.577 347.466 441.151 346.383 442.502C345.3 443.854 343.933 444.951 342.378 445.714C339.842 446.463 337.232 446.93 334.594 447.107L306.492 447.25L306.17 447.268ZM310.83 430.126H310.312C308.184 430.442 306.262 431.576 304.956 433.286C301.653 437.483 304.117 444.5 304.653 445.197C305.234 445.353 305.837 445.413 306.438 445.375L334.522 445.214C336.94 445.047 339.333 444.628 341.664 443.965C342.947 443.297 344.071 442.361 344.961 441.221C345.851 440.082 346.487 438.764 346.824 437.358C347.203 436.341 347.345 435.251 347.24 434.172C347.134 433.092 346.785 432.05 346.217 431.126C344.253 428.483 340.414 428.233 337.665 429.108C334.356 430.268 331.318 432.091 328.738 434.465C328.621 434.567 328.481 434.638 328.329 434.672C328.178 434.706 328.02 434.702 327.871 434.659C327.722 434.616 327.586 434.537 327.475 434.428C327.365 434.32 327.283 434.185 327.238 434.036C326.876 432.579 326.17 431.23 325.179 430.103C324.188 428.975 322.941 428.101 321.543 427.554C320.784 427.319 319.987 427.236 319.197 427.31C318.406 427.383 317.638 427.612 316.936 427.983C316.394 428.243 315.908 428.609 315.51 429.06C315.111 429.511 314.807 430.037 314.615 430.608C314.569 430.752 314.487 430.883 314.378 430.989C314.269 431.095 314.136 431.173 313.99 431.215C313.844 431.256 313.689 431.262 313.54 431.231C313.391 431.2 313.251 431.133 313.133 431.036C312.488 430.486 311.678 430.165 310.83 430.126Z" fill="#50AA50"/>
<path d="M298.814 432.679C298.009 434.215 297.673 435.954 297.85 437.679C297.957 438.554 299.35 438.572 299.243 437.679C299.064 436.2 299.331 434.701 300.011 433.376C300.421 432.59 299.225 431.876 298.814 432.679Z" fill="#50AA50"/>
<path d="M294.762 433.786C294.337 435.33 294.294 436.954 294.637 438.518C294.833 439.393 296.172 439.018 295.976 438.143C295.686 436.826 295.729 435.458 296.101 434.161C296.139 433.987 296.11 433.805 296.018 433.653C295.927 433.5 295.78 433.388 295.609 433.34C295.437 433.292 295.254 433.311 295.096 433.394C294.939 433.477 294.819 433.618 294.762 433.786Z" fill="#50AA50"/>
<path d="M302.546 430.965C302.731 430.965 302.908 430.892 303.038 430.761C303.169 430.63 303.242 430.453 303.242 430.269C303.242 430.084 303.169 429.907 303.038 429.776C302.908 429.646 302.731 429.572 302.546 429.572C302.361 429.572 302.184 429.646 302.054 429.776C301.923 429.907 301.85 430.084 301.85 430.269C301.85 430.453 301.923 430.63 302.054 430.761C302.184 430.892 302.361 430.965 302.546 430.965Z" fill="#50AA50"/>
<path d="M306.492 437.679V438.911C306.518 439.074 306.602 439.223 306.728 439.33C306.854 439.437 307.014 439.496 307.179 439.496C307.344 439.496 307.504 439.437 307.63 439.33C307.756 439.223 307.84 439.074 307.866 438.911V437.679C307.84 437.516 307.756 437.367 307.63 437.26C307.504 437.153 307.344 437.094 307.179 437.094C307.014 437.094 306.854 437.153 306.728 437.26C306.602 437.367 306.518 437.516 306.492 437.679Z" fill="#50AA50"/>
<path d="M329.934 439.84V440.465C329.934 440.649 330.007 440.827 330.138 440.957C330.268 441.088 330.446 441.161 330.63 441.161C330.815 441.161 330.992 441.088 331.123 440.957C331.253 440.827 331.327 440.649 331.327 440.465V439.84C331.327 439.655 331.253 439.478 331.123 439.347C330.992 439.217 330.815 439.143 330.63 439.143C330.446 439.143 330.268 439.217 330.138 439.347C330.007 439.478 329.934 439.655 329.934 439.84Z" fill="#50AA50"/>
<path d="M327.363 438.179L327.667 438.483C328.309 439.108 329.291 438.125 328.648 437.5L328.345 437.197C327.72 436.554 326.738 437.536 327.363 438.179Z" fill="#50AA50"/>
<path d="M346.699 244.508H345.342C345.368 244.228 345.336 243.946 345.247 243.68C345.158 243.413 345.015 243.168 344.826 242.96C344.636 242.753 344.406 242.587 344.149 242.473C343.892 242.359 343.614 242.301 343.333 242.301C343.052 242.301 342.775 242.359 342.518 242.473C342.261 242.587 342.03 242.753 341.841 242.96C341.652 243.168 341.509 243.413 341.42 243.68C341.331 243.946 341.298 244.228 341.325 244.508H339.986C339.986 243.618 340.339 242.764 340.969 242.134C341.598 241.505 342.452 241.151 343.342 241.151C344.233 241.151 345.086 241.505 345.716 242.134C346.345 242.764 346.699 243.618 346.699 244.508Z" fill="white"/>
<path d="M351.502 166.315H350.145C350.098 165.815 349.866 165.35 349.494 165.012C349.123 164.674 348.638 164.487 348.136 164.487C347.634 164.487 347.15 164.674 346.778 165.012C346.407 165.35 346.175 165.815 346.128 166.315H344.789C344.789 165.874 344.875 165.438 345.044 165.03C345.213 164.623 345.46 164.253 345.772 163.941C346.083 163.629 346.453 163.382 346.861 163.213C347.268 163.045 347.704 162.958 348.145 162.958C348.586 162.958 349.022 163.045 349.43 163.213C349.837 163.382 350.207 163.629 350.518 163.941C350.83 164.253 351.077 164.623 351.246 165.03C351.415 165.438 351.502 165.874 351.502 166.315Z" fill="white"/>
<path d="M184.37 438.018H120.471L121.56 435.447C125.755 425.501 126.184 416.983 125.541 407.27L125.416 405.305L179.282 405.127V406.912C179.619 416.569 181.062 426.155 183.585 435.483L184.37 438.018ZM125.987 434.304H179.371C177.361 425.971 176.112 417.472 175.639 408.912L129.362 409.055C130.051 417.616 128.9 426.225 125.987 434.304Z" fill="#415B91"/>
<path d="M102.117 408.912C53.6073 408.912 14.3105 408.645 12.5787 408.02C8.43657 406.537 3.00896 400.877 2.93755 396.699C2.77686 387.77 2.40192 375.824 1.95557 361.896C0.634372 319.862 -1.18674 262.293 1.16999 230.437C1.35925 227.658 2.59267 225.053 4.62267 223.145C6.65266 221.237 9.329 220.168 12.1145 220.152H12.3109L291.958 220.581C294.801 220.654 297.504 221.826 299.502 223.85C301.499 225.874 302.635 228.594 302.671 231.437C302.885 240.74 303.189 250.258 303.492 259.9C304.778 300.238 306.099 342.04 301.707 381.431C301.528 382.985 301.457 384.699 301.367 386.485C300.993 394.77 300.528 405.073 289.852 407.162C284.638 408.109 181.156 408.912 102.117 408.912ZM12.1502 223.205C10.1101 223.219 8.15028 224.003 6.66364 225.4C5.17699 226.797 4.27334 228.705 4.13376 230.741C1.79489 262.436 3.59814 319.898 4.93719 361.861C5.36568 375.824 5.75847 387.86 5.90131 396.734C5.90131 399.306 10.2577 404.109 13.5785 405.288C19.5418 406.502 282.442 405.609 289.28 404.323C297.654 402.663 298.029 394.413 298.404 386.467C298.404 384.681 298.564 382.896 298.743 381.217C303.189 341.933 301.867 300.363 300.528 260.115C300.225 250.472 299.921 240.955 299.707 231.544C299.68 229.459 298.847 227.465 297.383 225.98C295.918 224.496 293.936 223.636 291.851 223.58L12.2038 223.17L12.1502 223.205Z" fill="#415B91"/>
<path fill-rule="evenodd" clip-rule="evenodd" d="M284.138 230.116L20.6487 229.759C18.4792 229.626 16.3394 230.317 14.6577 231.694C12.976 233.072 11.8763 235.034 11.5789 237.187C8.63298 272.453 12.6501 346.111 13.2393 375.664C13.2393 378.556 18.0063 382.806 21.3986 383.949C25.3979 385.217 275.801 384.27 281.907 383.199C292.905 381.271 291.03 370.021 291.958 362.807C297.172 322.076 293.958 277.81 292.923 237.955C292.749 235.768 291.739 233.733 290.103 232.273C288.467 230.813 286.33 230.04 284.138 230.116Z" fill="#B6D0FB"/>
<path d="M207.223 448.196H97.5996C95.7955 448.196 94.0652 447.48 92.7895 446.204C91.5139 444.928 90.7972 443.197 90.7972 441.393C90.7972 439.589 91.5139 437.858 92.7895 436.582C94.0652 435.307 95.7955 434.59 97.5996 434.59H207.223C209.027 434.59 210.758 435.307 212.033 436.582C213.309 437.858 214.026 439.589 214.026 441.393C214.026 443.197 213.309 444.928 212.033 446.204C210.758 447.48 209.027 448.196 207.223 448.196ZM97.5996 437.483C96.629 437.549 95.7199 437.981 95.0559 438.692C94.3919 439.403 94.0226 440.34 94.0226 441.313C94.0226 442.286 94.3919 443.222 95.0559 443.933C95.7199 444.644 96.629 445.077 97.5996 445.143H207.223C208.194 445.077 209.103 444.644 209.767 443.933C210.431 443.222 210.8 442.286 210.8 441.313C210.8 440.34 210.431 439.403 209.767 438.692C209.103 437.981 208.194 437.549 207.223 437.483H97.5996Z" fill="#415B91"/>
<path d="M21.2379 398.448C26.1656 398.448 26.1835 390.788 21.2379 390.788C16.2924 390.788 16.3102 398.448 21.2379 398.448Z" fill="#415B91"/>
<path d="M36.6638 398.448C41.5915 398.448 41.6094 390.788 36.6638 390.788C31.7182 390.788 31.7361 398.448 36.6638 398.448Z" fill="#415B91"/>
<path d="M52.0897 398.448C57.0174 398.448 57.0353 390.788 52.0897 390.788C47.1441 390.788 47.162 398.448 52.0897 398.448Z" fill="#415B91"/>
<path d="M152.411 227.83C152.885 227.83 153.339 227.642 153.674 227.307C154.009 226.972 154.197 226.518 154.197 226.045C154.197 225.571 154.009 225.117 153.674 224.782C153.339 224.447 152.885 224.259 152.411 224.259C151.938 224.259 151.484 224.447 151.149 224.782C150.814 225.117 150.626 225.571 150.626 226.045C150.626 226.518 150.814 226.972 151.149 227.307C151.484 227.642 151.938 227.83 152.411 227.83Z" fill="#415B91"/>
<path d="M461.589 440.875H423.81L438.344 393.145H447.074L461.589 440.875Z" fill="#B6D0FB"/>
<path d="M464.714 440.875H420.704V446.322H464.714V440.875Z" fill="#B6D0FB"/>
<path d="M427.453 428.947L423.81 440.875H461.589L457.965 428.947H427.453Z" fill="#415B91"/>
<path d="M431.077 417.019H454.323L450.699 405.073H434.719L431.077 417.019Z" fill="#415B91"/>
<path d="M477.033 446.018H485.425V413.555H528.453V446.018H536.826V413.555H545.753V387.645H538.612V385.253H526.4V387.645H488.299V385.253H476.087V387.645H468.303V413.555H477.033V446.018ZM543.004 390.342V390.467L537.844 410.859H528.613L533.809 390.342H543.004ZM518.954 410.859H509.742L514.937 390.342H524.15L518.954 410.859ZM500.083 410.859H490.852L496.048 390.342H505.243L500.083 410.859ZM477.176 390.342H486.389L481.193 410.859H471.98L477.176 390.342Z" fill="#B6D0FB"/>
<path d="M64.7482 128.691L67.2656 126.191C67.4852 125.946 67.6066 125.628 67.6066 125.299C67.6066 124.969 67.4852 124.651 67.2656 124.406L65.0696 122.227C64.8103 121.956 64.6432 121.61 64.5919 121.238C64.5406 120.866 64.6078 120.487 64.7839 120.156L66.5693 115.835C66.681 115.479 66.9012 115.167 67.1989 114.943C67.4967 114.719 67.8571 114.594 68.2297 114.585H71.3899C71.7355 114.585 72.0671 114.447 72.3115 114.203C72.5559 113.959 72.6932 113.627 72.6932 113.281V109.71C72.6932 109.364 72.5559 109.033 72.3115 108.788C72.0671 108.544 71.7355 108.406 71.3899 108.406H68.2833C67.9107 108.397 67.5503 108.272 67.2525 108.048C66.9547 107.824 66.7346 107.512 66.6229 107.156L64.8375 102.817C64.6655 102.488 64.6006 102.113 64.6518 101.745C64.703 101.377 64.8678 101.034 65.1231 100.764L67.3192 98.5676C67.5425 98.3239 67.6664 98.0053 67.6664 97.6747C67.6664 97.3442 67.5425 97.0256 67.3192 96.7819L64.8017 94.2642C64.5581 94.0408 64.2396 93.9169 63.909 93.9169C63.5785 93.9169 63.26 94.0408 63.0163 94.2642L60.6775 96.4248C60.4075 96.6802 60.0646 96.845 59.6966 96.8962C59.3285 96.9474 58.9537 96.8825 58.6243 96.7105L54.2857 94.9248C53.9302 94.8131 53.6185 94.5929 53.3944 94.2951C53.1702 93.9973 53.0449 93.6368 53.0359 93.2642V90.0857C53.0359 89.74 52.8986 89.4085 52.6542 89.164C52.4098 88.9196 52.0783 88.7822 51.7326 88.7822H48.1618C47.8161 88.7822 47.4846 88.9196 47.2402 89.164C46.9958 89.4085 46.8585 89.74 46.8585 90.0857V93.1928C46.8495 93.5654 46.7242 93.9259 46.5 94.2237C46.2759 94.5215 45.9642 94.7417 45.6087 94.8534L41.288 96.6391C40.9677 96.8163 40.6007 96.8909 40.2366 96.8525C39.8725 96.8142 39.529 96.6649 39.2526 96.4248L37.0566 94.2284C36.817 93.9971 36.4969 93.8679 36.1639 93.8679C35.8309 93.8679 35.5108 93.9971 35.2712 94.2284L32.7359 96.7462C32.5126 96.9899 32.3887 97.3084 32.3887 97.639C32.3887 97.9696 32.5126 98.2881 32.7359 98.5318L34.932 100.728C35.1902 100.996 35.3583 101.338 35.4127 101.706C35.4672 102.074 35.4052 102.45 35.2355 102.782L33.4501 107.121C33.3242 107.471 33.0979 107.777 32.7994 107.999C32.5009 108.221 32.1434 108.351 31.7718 108.371H28.6652C28.4949 108.371 28.3263 108.405 28.1691 108.47C28.012 108.536 27.8695 108.632 27.7499 108.754C27.6302 108.875 27.5359 109.019 27.4724 109.177C27.4089 109.335 27.3774 109.504 27.3797 109.674V113.246C27.3797 113.588 27.5146 113.917 27.7551 114.161C27.9957 114.405 28.3226 114.544 28.6652 114.549H31.7718C32.1475 114.554 32.5119 114.678 32.8132 114.902C33.1146 115.127 33.3374 115.441 33.4501 115.799L35.2355 120.12C35.3966 120.457 35.4538 120.833 35.3997 121.202C35.3456 121.571 35.1828 121.916 34.932 122.192L32.7359 124.37C32.5163 124.616 32.3949 124.934 32.3949 125.263C32.3949 125.592 32.5163 125.91 32.7359 126.156L35.2712 128.656C35.5086 128.891 35.8295 129.023 36.1639 129.023C36.4983 129.023 36.8192 128.891 37.0566 128.656L39.2526 126.513C39.5285 126.262 39.8729 126.099 40.2419 126.045C40.6108 125.991 40.9875 126.048 41.3237 126.209L45.6444 127.995C46.0028 128.108 46.3165 128.331 46.5409 128.632C46.7653 128.933 46.8889 129.298 46.8942 129.673V132.78C46.8989 133.123 47.0382 133.45 47.2822 133.691C47.5261 133.931 47.8549 134.066 48.1975 134.066H51.7683C51.9386 134.069 52.1077 134.037 52.2657 133.973C52.4238 133.91 52.5676 133.816 52.6889 133.696C52.8101 133.576 52.9064 133.434 52.9721 133.277C53.0378 133.119 53.0717 132.951 53.0717 132.78V129.673C53.0769 129.298 53.2005 128.933 53.4249 128.632C53.6493 128.331 53.963 128.108 54.3214 127.995L58.66 126.209C58.9912 126.04 59.3671 125.978 59.7352 126.032C60.1033 126.086 60.4452 126.255 60.7132 126.513L62.9092 128.691C63.0289 128.814 63.172 128.911 63.3299 128.978C63.4878 129.044 63.6574 129.079 63.8287 129.079C64 129.079 64.1696 129.044 64.3275 128.978C64.4854 128.911 64.6285 128.814 64.7482 128.691ZM49.9651 121.817C47.9099 121.817 45.9009 121.207 44.1921 120.065C42.4833 118.923 41.1515 117.3 40.365 115.401C39.5785 113.502 39.3727 111.413 39.7737 109.397C40.1746 107.381 41.1643 105.529 42.6175 104.076C44.0707 102.622 45.9222 101.632 47.9379 101.231C49.9535 100.83 52.0428 101.036 53.9415 101.823C55.8403 102.609 57.4631 103.941 58.6049 105.65C59.7467 107.359 60.3561 109.369 60.3561 111.424C60.3561 114.18 59.2613 116.824 57.3126 118.773C55.3639 120.722 52.7209 121.817 49.9651 121.817Z" fill="#B6D0FB"/>
<path d="M88.7797 138.512L88.137 136.405C88.0751 136.202 87.9351 136.031 87.7477 135.931C87.5603 135.83 87.3407 135.808 87.1371 135.87L85.3517 136.423C85.128 136.48 84.8922 136.468 84.6755 136.388C84.4587 136.309 84.2712 136.165 84.1376 135.977L82.3522 133.745C82.1927 133.576 82.0884 133.362 82.0534 133.132C82.0183 132.903 82.054 132.668 82.1558 132.459L83.0664 130.673C83.1161 130.58 83.1467 130.477 83.1565 130.371C83.1663 130.266 83.1551 130.159 83.1236 130.058C83.0921 129.957 83.0408 129.863 82.9728 129.781C82.9047 129.7 82.8213 129.633 82.7272 129.584L80.6918 128.566C80.5021 128.464 80.2796 128.44 80.0725 128.5C79.8654 128.56 79.6902 128.7 79.5849 128.888L78.6922 130.673C78.5712 130.87 78.3945 131.025 78.1846 131.121C77.9747 131.216 77.7412 131.247 77.5138 131.209L74.6215 130.923C74.3923 130.912 74.1716 130.833 73.9873 130.696C73.803 130.56 73.6633 130.372 73.5859 130.156L73.0324 128.37C72.9666 128.169 72.826 128.001 72.6398 127.902C72.4536 127.802 72.2362 127.778 72.0326 127.834L69.908 128.477C69.7046 128.539 69.534 128.679 69.4336 128.866C69.3332 129.054 69.3112 129.273 69.3724 129.477L69.9258 131.263C69.9854 131.486 69.9745 131.723 69.8947 131.94C69.8148 132.158 69.6698 132.345 69.4795 132.477L67.2477 134.263C67.0756 134.417 66.8613 134.516 66.6323 134.548C66.4033 134.58 66.1699 134.543 65.9623 134.441L64.2661 133.53C64.076 133.435 63.8562 133.417 63.6531 133.48C63.4499 133.543 63.2793 133.683 63.177 133.87L62.1415 135.798C62.039 135.988 62.0152 136.21 62.0754 136.418C62.1355 136.625 62.2747 136.8 62.4629 136.905L64.2483 137.816C64.4481 137.93 64.6082 138.102 64.7072 138.309C64.8061 138.517 64.8391 138.75 64.8017 138.977L64.5161 141.869C64.5072 142.099 64.4292 142.321 64.2922 142.506C64.1552 142.691 63.9657 142.83 63.7484 142.905L61.963 143.459C61.8602 143.489 61.7646 143.54 61.6818 143.608C61.599 143.676 61.5306 143.76 61.4807 143.855C61.4308 143.949 61.4004 144.053 61.3912 144.16C61.382 144.267 61.3943 144.374 61.4273 144.476L62.0522 146.583C62.118 146.788 62.2614 146.959 62.4517 147.059C62.642 147.159 62.8639 147.181 63.0699 147.119L64.8553 146.566C65.0764 146.51 65.3093 146.523 65.5229 146.603C65.7365 146.682 65.9209 146.825 66.0515 147.012L67.8369 149.244C67.9893 149.417 68.0874 149.632 68.1191 149.86C68.1509 150.089 68.1148 150.321 68.0155 150.53L67.1228 152.315C67.0211 152.502 66.9978 152.722 67.0581 152.926C67.1184 153.131 67.2572 153.303 67.4441 153.405L69.3902 154.44C69.5773 154.542 69.7971 154.565 70.0013 154.505C70.2055 154.445 70.3774 154.306 70.4793 154.119L71.3899 152.333C71.5084 152.134 71.6841 151.974 71.8941 151.876C72.1042 151.777 72.339 151.744 72.5682 151.78L75.4427 152.083C75.6744 152.093 75.8979 152.172 76.0852 152.308C76.2726 152.445 76.4156 152.634 76.4961 152.851L77.0496 154.637C77.0784 154.739 77.1271 154.835 77.1931 154.918C77.2591 155.001 77.3409 155.071 77.4339 155.122C77.5269 155.174 77.6292 155.206 77.7349 155.218C77.8405 155.23 77.9474 155.22 78.0494 155.19L80.1562 154.547C80.3577 154.481 80.5268 154.342 80.6294 154.156C80.7321 153.971 80.7608 153.753 80.7097 153.547L80.1383 151.762C80.0814 151.538 80.0935 151.302 80.1732 151.085C80.2529 150.869 80.3963 150.681 80.5847 150.548L82.8343 148.762C83.0004 148.604 83.2108 148.5 83.4374 148.465C83.6639 148.43 83.8958 148.465 84.1019 148.565L85.7981 149.458C85.8901 149.511 85.9919 149.545 86.0973 149.557C86.2027 149.57 86.3095 149.56 86.4113 149.53C86.5131 149.5 86.6077 149.45 86.6895 149.382C86.7713 149.315 86.8385 149.231 86.8872 149.137L87.9406 147.191C88.0361 147 88.0542 146.781 87.9909 146.577C87.9276 146.374 87.7879 146.204 87.6013 146.101L85.9052 145.191C85.7069 145.076 85.5489 144.903 85.453 144.695C85.357 144.488 85.3279 144.255 85.3696 144.03L85.6731 141.066C85.682 140.836 85.76 140.614 85.897 140.429C86.034 140.245 86.2235 140.105 86.4408 140.03L88.2262 139.477C88.4202 139.411 88.5836 139.277 88.6855 139.099C88.7875 138.922 88.821 138.713 88.7797 138.512ZM80.7097 144.637C80.1097 145.763 79.1893 146.685 78.065 147.287C76.9406 147.889 75.663 148.144 74.3937 148.02C73.1244 147.896 71.9205 147.397 70.9344 146.588C69.9483 145.779 69.2244 144.696 68.8543 143.475C68.4841 142.255 68.4844 140.952 68.855 139.731C69.2257 138.511 69.9501 137.428 70.9365 136.619C71.9229 135.81 73.1269 135.313 74.3963 135.189C75.6656 135.065 76.9432 135.321 78.0673 135.923C79.5716 136.73 80.6947 138.1 81.1901 139.734C81.6854 141.367 81.5127 143.131 80.7097 144.637Z" fill="#B6D0FB"/>
<path d="M193.904 179.189H135.664C135.174 179.189 134.704 178.995 134.358 178.648C134.011 178.301 133.816 177.831 133.816 177.341C133.816 176.851 134.011 176.381 134.358 176.034C134.704 175.688 135.174 175.493 135.664 175.493H193.868C194.359 175.493 194.829 175.688 195.175 176.034C195.522 176.381 195.716 176.851 195.716 177.341C195.716 177.831 195.522 178.301 195.175 178.648C194.829 178.995 194.359 179.189 193.868 179.189H193.904Z" fill="#405B91"/>
<path d="M526.185 255.704H432.184C431.694 255.704 431.224 255.509 430.877 255.163C430.531 254.816 430.336 254.346 430.336 253.856C430.336 253.366 430.531 252.896 430.877 252.549C431.224 252.203 431.694 252.008 432.184 252.008H526.185C526.675 252.008 527.145 252.203 527.492 252.549C527.839 252.896 528.033 253.366 528.033 253.856C528.033 254.346 527.839 254.816 527.492 255.163C527.145 255.509 526.675 255.704 526.185 255.704Z" fill="#405B91"/>
<path d="M563.596 450H1.46022C1.07295 450 0.701534 449.789 0.427689 449.414C0.153844 449.039 0 448.53 0 448C0 447.47 0.153844 446.961 0.427689 446.586C0.701534 446.211 1.07295 446 1.46022 446H563.54C563.927 446 564.299 446.211 564.572 446.586C564.846 446.961 565 447.47 565 448C565 448.53 564.846 449.039 564.572 449.414C564.299 449.789 563.927 450 563.54 450H563.596Z" fill="#405B91"/>
<path d="M302.242 155.94C299.612 155.937 297.028 156.63 294.751 157.947C292.475 159.264 290.587 161.16 289.278 163.442C287.97 165.724 287.287 168.311 287.3 170.942C287.313 173.572 288.021 176.152 289.352 178.421L289.602 178.85L274.479 193.957C274.021 194.441 273.755 195.076 273.729 195.742C273.792 196.625 274.203 197.448 274.872 198.028C275.189 198.394 275.577 198.693 276.013 198.905C276.449 199.116 276.923 199.237 277.407 199.26C278.05 199.243 278.673 199.031 279.193 198.653L294.262 183.564L294.69 183.814C296.669 184.969 298.887 185.653 301.173 185.813C303.459 185.973 305.75 185.605 307.871 184.736C309.991 183.868 311.883 182.523 313.4 180.806C314.917 179.088 316.019 177.045 316.619 174.833C317.219 172.622 317.303 170.301 316.862 168.053C316.422 165.804 315.47 163.686 314.08 161.865C312.689 160.043 310.899 158.566 308.846 157.548C306.793 156.53 304.534 155.998 302.242 155.994V155.94ZM302.242 181.368C299.458 181.368 296.788 180.262 294.819 178.292C292.85 176.323 291.744 173.653 291.744 170.868C291.744 168.084 292.85 165.413 294.819 163.444C296.788 161.475 299.458 160.369 302.242 160.369C305.027 160.369 307.697 161.475 309.666 163.444C311.634 165.413 312.741 168.084 312.741 170.868C312.741 173.653 311.634 176.323 309.666 178.292C307.697 180.262 305.027 181.368 302.242 181.368Z" fill="#B6D0FB"/>
<path d="M296.708 173.047H307.509V170.279H296.708V173.047Z" fill="#B6D0FB"/>
<path d="M24.9694 446.572C24.4959 446.572 24.0418 446.383 23.707 446.049C23.3721 445.714 23.184 445.26 23.184 444.786V302.095C23.184 301.605 23.3787 301.135 23.7253 300.788C24.0718 300.442 24.5418 300.247 25.0319 300.247C25.522 300.247 25.992 300.442 26.3386 300.788C26.6851 301.135 26.8798 301.605 26.8798 302.095V444.715C26.8905 444.966 26.848 445.217 26.755 445.45C26.6621 445.684 26.5208 445.896 26.3404 446.071C26.16 446.246 25.9447 446.382 25.7084 446.468C25.4721 446.554 25.2203 446.589 24.9694 446.572Z" fill="#405B91"/>
<path d="M58.0886 446.572C57.6151 446.572 57.161 446.383 56.8262 446.049C56.4913 445.714 56.3032 445.26 56.3032 444.786V302.095C56.3032 301.605 56.4979 301.135 56.8444 300.788C57.191 300.442 57.661 300.247 58.1511 300.247C58.6412 300.247 59.1112 300.442 59.4578 300.788C59.8043 301.135 59.999 301.605 59.999 302.095V444.715C60.0097 444.966 59.9672 445.217 59.8742 445.45C59.7813 445.684 59.64 445.896 59.4596 446.071C59.2792 446.246 59.0639 446.382 58.8276 446.468C58.5913 446.554 58.3395 446.589 58.0886 446.572Z" fill="#405B91"/>
<path d="M58.0886 313.684H24.9694C24.4793 313.684 24.0093 313.489 23.6628 313.143C23.3162 312.796 23.1215 312.326 23.1215 311.836C23.1215 311.346 23.3162 310.876 23.6628 310.529C24.0093 310.182 24.4793 309.988 24.9694 309.988H58.1243C58.6144 309.988 59.0844 310.182 59.431 310.529C59.7775 310.876 59.9722 311.346 59.9722 311.836C59.9722 312.326 59.7775 312.796 59.431 313.143C59.0844 313.489 58.6144 313.684 58.1243 313.684H58.0886Z" fill="#405B91"/>
<path d="M58.0886 329.987H24.9694C24.4793 329.987 24.0093 329.792 23.6628 329.446C23.3162 329.099 23.1215 328.629 23.1215 328.139C23.1215 327.649 23.3162 327.179 23.6628 326.832C24.0093 326.485 24.4793 326.291 24.9694 326.291H58.1243C58.6144 326.291 59.0844 326.485 59.431 326.832C59.7775 327.179 59.9722 327.649 59.9722 328.139C59.9722 328.629 59.7775 329.099 59.431 329.446C59.0844 329.792 58.6144 329.987 58.1243 329.987H58.0886Z" fill="#405B91"/>
<path d="M58.0886 346.29H24.9694C24.477 346.29 24.0047 346.094 23.6564 345.746C23.3082 345.398 23.1126 344.925 23.1126 344.433C23.1126 343.94 23.3082 343.468 23.6564 343.12C24.0047 342.771 24.477 342.576 24.9694 342.576H58.1243C58.6168 342.576 59.0891 342.771 59.4373 343.12C59.7855 343.468 59.9811 343.94 59.9811 344.433C59.9811 344.925 59.7855 345.398 59.4373 345.746C59.0891 346.094 58.6168 346.29 58.1243 346.29H58.0886Z" fill="#405B91"/>
<path d="M58.0886 362.575H24.9694C24.4841 362.575 24.0186 362.382 23.6754 362.039C23.3322 361.696 23.1394 361.23 23.1394 360.745C23.1394 360.259 23.3322 359.794 23.6754 359.45C24.0186 359.107 24.4841 358.914 24.9694 358.914H58.1243C58.6144 358.914 59.0844 359.109 59.431 359.456C59.7775 359.802 59.9722 360.272 59.9722 360.762C59.9722 361.253 59.7775 361.723 59.431 362.069C59.0844 362.416 58.6144 362.611 58.1243 362.611L58.0886 362.575Z" fill="#405B91"/>
<path d="M58.0886 378.878H24.9694C24.477 378.878 24.0047 378.682 23.6564 378.334C23.3082 377.986 23.1126 377.513 23.1126 377.021C23.1126 376.528 23.3082 376.056 23.6564 375.708C24.0047 375.359 24.477 375.164 24.9694 375.164H58.1243C58.6168 375.164 59.0891 375.359 59.4373 375.708C59.7855 376.056 59.9811 376.528 59.9811 377.021C59.9811 377.513 59.7855 377.986 59.4373 378.334C59.0891 378.682 58.6168 378.878 58.1243 378.878H58.0886Z" fill="#405B91"/>
<path d="M58.0886 395.163H24.9694C24.4793 395.163 24.0093 394.968 23.6628 394.622C23.3162 394.275 23.1215 393.805 23.1215 393.315C23.1215 392.825 23.3162 392.354 23.6628 392.008C24.0093 391.661 24.4793 391.467 24.9694 391.467H58.1243C58.6144 391.467 59.0844 391.661 59.431 392.008C59.7775 392.354 59.9722 392.825 59.9722 393.315C59.9722 393.805 59.7775 394.275 59.431 394.622C59.0844 394.968 58.6144 395.163 58.1243 395.163H58.0886Z" fill="#405B91"/>
<path d="M58.0886 411.466H24.9694C24.477 411.466 24.0047 411.27 23.6564 410.922C23.3082 410.574 23.1126 410.101 23.1126 409.609C23.1126 409.116 23.3082 408.644 23.6564 408.296C24.0047 407.947 24.477 407.752 24.9694 407.752H58.1243C58.6168 407.752 59.0891 407.947 59.4373 408.296C59.7855 408.644 59.9811 409.116 59.9811 409.609C59.9811 410.101 59.7855 410.574 59.4373 410.922C59.0891 411.27 58.6168 411.466 58.1243 411.466H58.0886Z" fill="#405B91"/>
<path d="M58.0886 427.751H24.9694C24.4793 427.751 24.0093 427.556 23.6628 427.21C23.3162 426.863 23.1215 426.393 23.1215 425.903C23.1215 425.413 23.3162 424.943 23.6628 424.596C24.0093 424.249 24.4793 424.055 24.9694 424.055H58.1243C58.6144 424.055 59.0844 424.249 59.431 424.596C59.7775 424.943 59.9722 425.413 59.9722 425.903C59.9722 426.393 59.7775 426.863 59.431 427.21C59.0844 427.556 58.6144 427.751 58.1243 427.751H58.0886Z" fill="#405B91"/>
<path d="M149.948 47.4981H142.806C142.314 47.4981 141.841 47.3024 141.493 46.9542C141.145 46.6059 140.949 46.1335 140.949 45.641C140.949 45.1485 141.145 44.6761 141.493 44.3279C141.841 43.9796 142.314 43.7839 142.806 43.7839H149.948C150.44 43.7839 150.912 43.9796 151.261 44.3279C151.609 44.6761 151.804 45.1485 151.804 45.641C151.804 46.1335 151.609 46.6059 151.261 46.9542C150.912 47.3024 150.44 47.4981 149.948 47.4981Z" fill="#405B91"/>
<path d="M204.706 424.412C204.534 424.437 204.36 424.437 204.188 424.412L197.261 422.448C196.787 422.313 196.387 421.995 196.147 421.565C195.908 421.134 195.849 420.627 195.984 420.153C196.119 419.679 196.437 419.279 196.867 419.039C197.297 418.8 197.805 418.741 198.278 418.876L205.206 420.858C205.444 420.917 205.667 421.025 205.862 421.174C206.056 421.323 206.218 421.511 206.337 421.725C206.456 421.94 206.529 422.176 206.553 422.42C206.576 422.664 206.549 422.911 206.473 423.144C206.36 423.521 206.125 423.849 205.805 424.078C205.485 424.307 205.099 424.425 204.706 424.412Z" fill="#405B91"/>
<path d="M200.242 426.894C200.071 426.919 199.896 426.919 199.725 426.894C199.487 426.835 199.263 426.727 199.069 426.578C198.874 426.429 198.712 426.241 198.593 426.027C198.474 425.812 198.401 425.576 198.377 425.332C198.354 425.088 198.381 424.841 198.457 424.608L200.439 417.68C200.571 417.206 200.887 416.805 201.315 416.564C201.744 416.323 202.25 416.262 202.724 416.394C203.198 416.527 203.599 416.842 203.84 417.271C204.081 417.699 204.142 418.206 204.01 418.68L202.028 425.626C201.913 426.006 201.675 426.336 201.352 426.566C201.029 426.795 200.638 426.911 200.242 426.894Z" fill="#405B91"/>
<path d="M168.284 206.635C168.111 206.652 167.938 206.652 167.766 206.635L160.838 204.653C160.365 204.518 159.964 204.2 159.725 203.77C159.486 203.339 159.427 202.832 159.562 202.358C159.697 201.885 160.014 201.484 160.445 201.245C160.875 201.005 161.383 200.946 161.856 201.081L168.784 203.063C169.257 203.13 169.685 203.381 169.973 203.763C170.261 204.145 170.385 204.625 170.319 205.099C170.253 205.573 170.001 206 169.619 206.288C169.238 206.576 168.757 206.701 168.284 206.635Z" fill="#405B91"/>
<path d="M163.82 209.099C163.655 209.125 163.486 209.125 163.32 209.099C163.081 209.042 162.856 208.936 162.659 208.788C162.462 208.639 162.298 208.452 162.178 208.237C162.057 208.023 161.982 207.785 161.957 207.54C161.933 207.295 161.959 207.048 162.035 206.813L164.017 199.885C164.152 199.411 164.469 199.011 164.899 198.771C165.33 198.532 165.837 198.473 166.311 198.608C166.784 198.743 167.185 199.061 167.424 199.491C167.664 199.921 167.722 200.429 167.587 200.903L165.606 207.831C165.491 208.211 165.253 208.541 164.93 208.771C164.607 209 164.216 209.116 163.82 209.099Z" fill="#405B91"/>
<path d="M181.626 156.579C191.673 146.53 191.673 130.238 181.626 120.189C171.578 110.141 155.288 110.141 145.241 120.19C135.194 130.238 135.194 146.53 145.241 156.579C155.288 166.627 171.578 166.627 181.626 156.579Z" fill="#B6D0FB"/>
<path d="M163.427 157.654C174.067 157.654 182.692 149.028 182.692 138.387C182.692 127.746 174.067 119.12 163.427 119.12C152.788 119.12 144.163 127.746 144.163 138.387C144.163 149.028 152.788 157.654 163.427 157.654Z" fill="white"/>
<path d="M163.427 158.405C159.469 158.405 155.599 157.231 152.308 155.031C149.017 152.832 146.451 149.705 144.936 146.048C143.422 142.39 143.025 138.365 143.798 134.482C144.57 130.599 146.476 127.033 149.275 124.233C152.074 121.434 155.64 119.527 159.523 118.755C163.405 117.983 167.429 118.379 171.086 119.894C174.744 121.409 177.869 123.975 180.069 127.267C182.268 130.558 183.442 134.428 183.442 138.387C183.437 143.695 181.327 148.784 177.574 152.536C173.822 156.289 168.734 158.4 163.427 158.405ZM163.427 119.852C159.761 119.849 156.176 120.933 153.126 122.967C150.076 125.002 147.698 127.896 146.293 131.282C144.887 134.669 144.518 138.396 145.231 141.992C145.944 145.589 147.708 148.893 150.299 151.487C152.89 154.081 156.192 155.848 159.787 156.565C163.383 157.282 167.11 156.916 170.497 155.513C173.885 154.111 176.78 151.735 178.817 148.687C180.855 145.638 181.942 142.054 181.942 138.387C181.933 133.478 179.979 128.771 176.51 125.298C173.04 121.825 168.336 119.867 163.427 119.852Z" fill="#405B91"/>
<path d="M163.427 139.12C163.33 139.122 163.233 139.105 163.142 139.069C163.051 139.033 162.968 138.98 162.898 138.912C162.828 138.843 162.773 138.762 162.735 138.672C162.697 138.582 162.677 138.485 162.677 138.387V128.566C162.677 128.367 162.756 128.177 162.897 128.036C163.038 127.895 163.228 127.816 163.427 127.816C163.531 127.806 163.635 127.818 163.734 127.852C163.832 127.885 163.922 127.939 163.999 128.01C164.075 128.081 164.135 128.167 164.175 128.263C164.215 128.359 164.234 128.462 164.231 128.566V138.387C164.231 138.49 164.21 138.591 164.169 138.685C164.128 138.779 164.067 138.863 163.992 138.932C163.916 139.001 163.827 139.053 163.729 139.086C163.632 139.118 163.529 139.13 163.427 139.12Z" fill="#405B91"/>
<path d="M174.943 139.12H163.463C163.365 139.122 163.268 139.105 163.177 139.069C163.087 139.033 163.004 138.98 162.934 138.912C162.864 138.843 162.808 138.762 162.771 138.672C162.733 138.582 162.713 138.485 162.713 138.387C162.713 138.189 162.792 137.998 162.933 137.857C163.073 137.716 163.264 137.637 163.463 137.637H174.943C175.142 137.637 175.333 137.716 175.473 137.857C175.614 137.998 175.693 138.189 175.693 138.387C175.693 138.485 175.674 138.582 175.636 138.672C175.598 138.762 175.542 138.843 175.472 138.912C175.403 138.98 175.32 139.033 175.229 139.069C175.138 139.105 175.041 139.122 174.943 139.12Z" fill="#405B91"/>
<path d="M164.231 121.281C164.234 121.434 164.192 121.585 164.109 121.714C164.026 121.843 163.906 121.944 163.765 122.005C163.624 122.065 163.468 122.082 163.318 122.053C163.167 122.023 163.029 121.95 162.92 121.842C162.812 121.733 162.739 121.595 162.709 121.444C162.68 121.293 162.697 121.138 162.757 120.997C162.818 120.856 162.919 120.736 163.048 120.653C163.177 120.57 163.328 120.527 163.481 120.531C163.68 120.531 163.871 120.61 164.011 120.751C164.152 120.891 164.231 121.082 164.231 121.281Z" fill="#405B91"/>
<path d="M175.515 127.066C175.939 127.066 176.282 126.723 176.282 126.299C176.282 125.875 175.939 125.531 175.515 125.531C175.091 125.531 174.747 125.875 174.747 126.299C174.747 126.723 175.091 127.066 175.515 127.066Z" fill="#405B91"/>
<path d="M180.514 139.137C180.361 139.137 180.212 139.092 180.085 139.007C179.959 138.921 179.86 138.8 179.803 138.659C179.745 138.518 179.731 138.362 179.762 138.213C179.793 138.064 179.868 137.927 179.977 137.82C180.087 137.714 180.225 137.642 180.375 137.614C180.525 137.587 180.68 137.605 180.82 137.665C180.96 137.726 181.079 137.827 181.161 137.956C181.243 138.085 181.285 138.235 181.281 138.387C181.281 138.487 181.261 138.586 181.223 138.679C181.184 138.771 181.127 138.854 181.055 138.924C180.984 138.994 180.899 139.049 180.806 139.085C180.713 139.122 180.614 139.14 180.514 139.137Z" fill="#405B91"/>
<path d="M175.515 151.244C175.939 151.244 176.282 150.9 176.282 150.476C176.282 150.052 175.939 149.708 175.515 149.708C175.091 149.708 174.747 150.052 174.747 150.476C174.747 150.9 175.091 151.244 175.515 151.244Z" fill="#405B91"/>
<path d="M162.66 155.476C162.66 155.324 162.705 155.176 162.789 155.049C162.873 154.923 162.993 154.825 163.134 154.767C163.274 154.708 163.428 154.693 163.577 154.723C163.726 154.753 163.863 154.826 163.97 154.933C164.078 155.04 164.151 155.177 164.18 155.326C164.21 155.475 164.195 155.629 164.137 155.77C164.078 155.91 163.98 156.03 163.854 156.114C163.728 156.199 163.579 156.244 163.427 156.244C163.224 156.244 163.028 156.163 162.884 156.019C162.74 155.875 162.66 155.68 162.66 155.476Z" fill="#405B91"/>
<path d="M150.805 149.994C150.948 149.854 151.14 149.776 151.34 149.776C151.54 149.776 151.732 149.854 151.876 149.994C152.013 150.142 152.088 150.337 152.088 150.539C152.088 150.741 152.013 150.935 151.876 151.083C151.732 151.223 151.54 151.301 151.34 151.301C151.14 151.301 150.948 151.223 150.805 151.083C150.733 151.012 150.676 150.927 150.637 150.834C150.598 150.74 150.578 150.64 150.578 150.539C150.578 150.437 150.598 150.337 150.637 150.244C150.676 150.15 150.733 150.065 150.805 149.994Z" fill="#405B91"/>
<path d="M146.323 139.155C146.747 139.155 147.091 138.811 147.091 138.387C147.091 137.963 146.747 137.62 146.323 137.62C145.899 137.62 145.555 137.963 145.555 138.387C145.555 138.811 145.899 139.155 146.323 139.155Z" fill="#405B91"/>
<path d="M151.876 125.745C152.013 125.893 152.088 126.088 152.088 126.29C152.088 126.491 152.013 126.686 151.876 126.834C151.732 126.974 151.54 127.052 151.34 127.052C151.14 127.052 150.948 126.974 150.805 126.834C150.733 126.763 150.676 126.678 150.637 126.585C150.598 126.491 150.578 126.391 150.578 126.29C150.578 126.188 150.598 126.088 150.637 125.995C150.676 125.901 150.733 125.816 150.805 125.745C150.948 125.605 151.14 125.527 151.34 125.527C151.54 125.527 151.732 125.605 151.876 125.745Z" fill="#405B91"/>
<path d="M201.046 128.566H190.244C190.146 128.569 190.049 128.552 189.958 128.516C189.868 128.48 189.785 128.427 189.715 128.358C189.645 128.29 189.59 128.209 189.552 128.119C189.514 128.029 189.494 127.932 189.494 127.834C189.494 127.635 189.573 127.445 189.714 127.304C189.854 127.163 190.045 127.084 190.244 127.084H201.046C201.245 127.084 201.435 127.163 201.576 127.304C201.717 127.445 201.796 127.635 201.796 127.834C201.796 127.932 201.776 128.029 201.738 128.119C201.7 128.209 201.645 128.29 201.575 128.358C201.505 128.427 201.422 128.48 201.331 128.516C201.24 128.552 201.143 128.569 201.046 128.566Z" fill="#405B91"/>
<path d="M201.046 149.69H190.244C190.137 149.707 190.028 149.7 189.924 149.671C189.82 149.641 189.723 149.589 189.641 149.519C189.559 149.449 189.493 149.361 189.448 149.263C189.402 149.165 189.379 149.058 189.379 148.949C189.379 148.841 189.402 148.734 189.448 148.636C189.493 148.538 189.559 148.45 189.641 148.38C189.723 148.309 189.82 148.258 189.924 148.228C190.028 148.198 190.137 148.192 190.244 148.208H201.046C201.153 148.192 201.262 148.198 201.366 148.228C201.47 148.258 201.567 148.309 201.649 148.38C201.731 148.45 201.797 148.538 201.842 148.636C201.888 148.734 201.911 148.841 201.911 148.949C201.911 149.058 201.888 149.165 201.842 149.263C201.797 149.361 201.731 149.449 201.649 149.519C201.567 149.589 201.47 149.641 201.366 149.671C201.262 149.7 201.153 149.707 201.046 149.69Z" fill="#405B91"/>
<path d="M214.472 139.137H194.297C194.098 139.137 193.907 139.058 193.767 138.918C193.626 138.777 193.547 138.586 193.547 138.387C193.547 138.189 193.626 137.998 193.767 137.857C193.907 137.716 194.098 137.637 194.297 137.637H214.472C214.671 137.637 214.862 137.716 215.002 137.857C215.143 137.998 215.222 138.189 215.222 138.387C215.222 138.586 215.143 138.777 215.002 138.918C214.862 139.058 214.671 139.137 214.472 139.137Z" fill="#405B91"/>
<path d="M249.662 417.019H237.736V428.947H249.662V417.019Z" fill="white"/>
<path d="M250.609 429.876H236.825V416.055H250.609V429.876ZM238.664 428.09H248.752V418.019H238.664V428.09Z" fill="#415B91"/>
<path d="M264.767 419.626H253.965C253.766 419.626 253.575 419.547 253.435 419.406C253.294 419.266 253.215 419.075 253.215 418.876C253.215 418.677 253.294 418.487 253.435 418.346C253.575 418.205 253.766 418.126 253.965 418.126H264.767C264.966 418.126 265.156 418.205 265.297 418.346C265.438 418.487 265.517 418.677 265.517 418.876C265.517 419.075 265.438 419.266 265.297 419.406C265.156 419.547 264.966 419.626 264.767 419.626Z" fill="#405B91"/>
<path d="M268.837 427.804H254.233C253.679 427.804 253.233 427.483 253.233 427.072C253.233 426.662 253.679 426.322 254.233 426.322H268.837C269.391 426.322 269.837 426.662 269.837 427.072C269.837 427.483 269.391 427.804 268.837 427.804Z" fill="#405B91"/>
<path d="M274.14 423.501H253.965C253.766 423.501 253.575 423.422 253.435 423.281C253.294 423.141 253.215 422.95 253.215 422.751C253.215 422.552 253.294 422.361 253.435 422.221C253.575 422.08 253.766 422.001 253.965 422.001H274.14C274.339 422.001 274.53 422.08 274.67 422.221C274.811 422.361 274.89 422.552 274.89 422.751C274.89 422.95 274.811 423.141 274.67 423.281C274.53 423.422 274.339 423.501 274.14 423.501Z" fill="#405B91"/>
<path d="M343.324 286.756H339.629V446.018H343.324V286.756Z" fill="#3F5B91"/>
<path d="M341.896 269.329H341.075C335.011 269.329 330.095 274.245 330.095 280.31V295.042C330.095 301.107 335.011 306.024 341.075 306.024H341.896C347.96 306.024 352.876 301.107 352.876 295.042V280.31C352.876 274.245 347.96 269.329 341.896 269.329Z" fill="#B6D0FB"/>
<path d="M356.394 295.363L360.304 296.006C361.179 296.131 361.553 294.792 360.679 294.667L356.769 294.024C355.894 293.899 355.519 295.22 356.394 295.363Z" fill="#3F5B91"/>
<path d="M356.269 286.881C357.283 286.712 358.316 286.676 359.34 286.774C360.214 286.864 360.214 285.471 359.34 285.382C358.189 285.283 357.03 285.337 355.894 285.542C355.019 285.703 355.394 287.042 356.269 286.881Z" fill="#3F5B91"/>
<path d="M355.84 279.15L358.84 277.971C359.661 277.632 359.304 276.293 358.465 276.632L355.465 277.81C354.644 278.132 355.001 279.489 355.84 279.15Z" fill="#3F5B91"/>
<path d="M321.793 296.667C322.813 296.526 323.818 296.287 324.792 295.953C325.631 295.667 325.256 294.31 324.417 294.613C323.443 294.95 322.439 295.189 321.418 295.328C320.543 295.453 320.918 296.792 321.793 296.667Z" fill="#3F5B91"/>
<path d="M319.989 286.792C321.263 286.831 322.528 287.023 323.756 287.364C323.93 287.402 324.112 287.373 324.265 287.281C324.418 287.19 324.53 287.043 324.578 286.872C324.626 286.7 324.606 286.517 324.523 286.359C324.44 286.201 324.3 286.082 324.131 286.024C322.782 285.647 321.39 285.437 319.989 285.399C319.805 285.399 319.627 285.473 319.497 285.603C319.366 285.734 319.293 285.911 319.293 286.096C319.293 286.281 319.366 286.458 319.497 286.588C319.627 286.719 319.805 286.792 319.989 286.792Z" fill="#3F5B91"/>
<path d="M321.203 275.364L324.203 276.328C325.06 276.596 325.417 275.257 324.56 274.989L321.56 274.025C320.721 273.757 320.346 275.096 321.203 275.364Z" fill="#3F5B91"/>
<path d="M332.844 448.179L335.308 426.894H347.342L350.127 447.875L332.844 448.179Z" fill="#405B91"/>
<path d="M99.51 320.13L144.341 279.596C146.555 277.596 143.27 274.239 141.074 276.328C126.112 289.828 111.163 303.339 96.2248 316.862C94.0109 318.862 97.2961 322.219 99.51 320.13Z" fill="#D7E7FF"/>
<path d="M150.18 340.808L195.011 300.274C197.225 298.274 193.958 295.006 191.744 297.006L146.912 337.487C144.681 339.486 147.966 342.754 150.18 340.754V340.808Z" fill="#D7E7FF"/>
<path d="M95.1179 356.129L189.084 264.472C191.226 262.4 187.959 259.115 185.816 261.204L91.8327 352.861C89.7081 354.95 92.9754 358.218 95.1179 356.129Z" fill="#D7E7FF"/>
<path d="M238.753 71.14H236.736V200.492H238.753V71.14Z" fill="#415B91"/>
<path d="M245.949 200.474C245.952 202.099 245.474 203.689 244.573 205.042C243.673 206.396 242.391 207.451 240.891 208.076C239.391 208.7 237.739 208.865 236.145 208.55C234.55 208.235 233.085 207.455 231.935 206.307C230.784 205.158 230 203.695 229.682 202.101C229.364 200.507 229.525 198.855 230.146 197.353C230.767 195.851 231.82 194.567 233.171 193.664C234.522 192.76 236.111 192.278 237.736 192.278C239.911 192.278 241.997 193.141 243.537 194.678C245.077 196.214 245.944 198.299 245.949 200.474Z" fill="#415B91"/>
<path d="M237.861 228.027C236.08 227.984 234.38 227.277 233.094 226.045C232.42 225.331 231.898 224.488 231.557 223.568C231.217 222.648 231.065 221.668 231.112 220.688C231.112 220.399 231.227 220.122 231.431 219.918C231.635 219.713 231.912 219.598 232.201 219.598C232.344 219.598 232.486 219.627 232.618 219.681C232.75 219.736 232.87 219.816 232.971 219.918C233.072 220.019 233.152 220.139 233.207 220.271C233.262 220.403 233.29 220.545 233.29 220.688C233.212 221.335 233.272 221.992 233.466 222.615C233.659 223.238 233.983 223.813 234.414 224.302C234.846 224.791 235.376 225.183 235.97 225.453C236.564 225.722 237.208 225.863 237.861 225.866C239.333 225.866 240.746 225.281 241.787 224.24C242.828 223.198 243.413 221.786 243.413 220.313C243.413 218.84 242.828 217.427 241.787 216.386C240.746 215.344 239.333 214.759 237.861 214.759C237.718 214.759 237.576 214.731 237.444 214.676C237.312 214.622 237.192 214.541 237.091 214.44C236.99 214.339 236.909 214.219 236.855 214.087C236.8 213.955 236.772 213.813 236.772 213.67V207.635C236.772 207.346 236.886 207.069 237.091 206.864C237.295 206.66 237.572 206.545 237.861 206.545C238.15 206.545 238.427 206.66 238.631 206.864C238.835 207.069 238.95 207.346 238.95 207.635V212.67C240.87 212.964 242.608 213.969 243.821 215.487C245.033 217.004 245.63 218.922 245.493 220.86C245.355 222.797 244.494 224.612 243.08 225.943C241.666 227.274 239.803 228.025 237.861 228.045V228.027Z" fill="#415B91"/>
<path d="M194.743 233.08C194.503 233.048 194.283 232.93 194.124 232.747C193.965 232.565 193.877 232.331 193.877 232.089C193.877 231.847 193.965 231.613 194.124 231.431C194.283 231.249 194.503 231.13 194.743 231.098L239.218 224.545C239.482 224.509 239.751 224.579 239.965 224.739C240.178 224.899 240.32 225.138 240.36 225.402C240.391 225.666 240.32 225.932 240.16 226.145C240.001 226.357 239.766 226.501 239.503 226.545L195.065 233.08H194.743Z" fill="#415B91"/>
<path d="M280.05 247.865C279.945 247.852 279.842 247.822 279.746 247.776L238.896 226.437C238.779 226.376 238.675 226.293 238.59 226.192C238.505 226.091 238.441 225.974 238.401 225.848C238.361 225.722 238.347 225.589 238.358 225.457C238.37 225.326 238.407 225.198 238.468 225.08C238.529 224.963 238.612 224.859 238.713 224.774C238.815 224.689 238.932 224.625 239.058 224.585C239.184 224.545 239.316 224.531 239.448 224.542C239.579 224.554 239.708 224.591 239.825 224.652L280.693 245.99C280.909 246.099 281.079 246.282 281.171 246.506C281.262 246.73 281.269 246.98 281.191 247.209C281.112 247.438 280.953 247.631 280.744 247.751C280.534 247.872 280.287 247.912 280.05 247.865Z" fill="#415B91"/>
<path d="M291.168 249.893L182.337 230.974C176.634 229.983 171.208 233.803 170.216 239.506L159.326 302.171C158.335 307.875 162.154 313.302 167.857 314.293L276.688 333.212C282.391 334.203 287.817 330.383 288.808 324.68L299.699 262.014C300.69 256.311 296.87 250.884 291.168 249.893Z" fill="white"/>
<path d="M278.193 334.683C277.486 334.679 276.781 334.613 276.086 334.487L168.034 315.72C166.445 315.446 164.927 314.86 163.566 313.996C162.205 313.131 161.03 312.006 160.107 310.684C159.172 309.374 158.509 307.89 158.157 306.32C157.804 304.75 157.769 303.125 158.053 301.542L168.766 239.633C169.324 236.43 171.13 233.58 173.788 231.708C176.446 229.837 179.739 229.097 182.942 229.652L290.994 248.437C292.581 248.711 294.098 249.295 295.459 250.156C296.82 251.018 297.997 252.139 298.924 253.456C299.851 254.772 300.51 256.259 300.861 257.831C301.213 259.402 301.252 261.028 300.975 262.615L290.262 324.505C289.767 327.349 288.286 329.929 286.079 331.79C283.872 333.651 281.08 334.676 278.193 334.683ZM180.871 232.241C178.642 232.246 176.485 233.036 174.781 234.473C173.077 235.91 171.933 237.901 171.551 240.098L160.839 302.006C160.623 303.232 160.652 304.49 160.923 305.705C161.194 306.921 161.703 308.07 162.419 309.089C163.136 310.108 164.046 310.975 165.099 311.641C166.151 312.307 167.324 312.758 168.551 312.97L276.622 331.755C279.098 332.18 281.641 331.607 283.696 330.161C285.75 328.716 287.148 326.515 287.584 324.041L298.297 262.132C298.512 260.906 298.483 259.649 298.212 258.433C297.941 257.218 297.432 256.068 296.716 255.049C295.999 254.031 295.089 253.164 294.036 252.498C292.984 251.832 291.811 251.38 290.584 251.169L182.513 232.384C181.971 232.291 181.421 232.243 180.871 232.241Z" fill="#415B91"/>
<path d="M288.114 255.995L183.153 237.749C179.509 237.116 176.043 239.556 175.41 243.2L165.464 300.429C164.831 304.073 167.271 307.54 170.914 308.173L275.875 326.419C279.518 327.052 282.985 324.612 283.618 320.968L293.564 263.739C294.197 260.095 291.757 256.628 288.114 255.995Z" fill="#B6D0FB"/>
<path d="M276.854 327.862C276.369 327.856 275.886 327.814 275.408 327.737L170.944 309.577C169.87 309.39 168.844 308.992 167.925 308.407C167.006 307.821 166.212 307.06 165.588 306.166C164.345 304.364 163.858 302.146 164.231 299.988L174.086 243.258C174.272 242.179 174.669 241.146 175.254 240.22C175.84 239.295 176.602 238.493 177.498 237.863C178.394 237.233 179.405 236.785 180.474 236.547C181.543 236.308 182.649 236.283 183.727 236.473L288.191 254.615C290.367 254.999 292.302 256.228 293.574 258.035C294.845 259.843 295.349 262.08 294.976 264.257L285.12 321.005C284.935 322.079 284.538 323.106 283.953 324.026C283.367 324.945 282.605 325.739 281.71 326.362C280.287 327.355 278.589 327.88 276.854 327.862ZM275.89 324.987C277.341 325.236 278.831 324.901 280.035 324.054C281.24 323.208 282.06 321.919 282.317 320.469L292.173 263.722C292.421 262.273 292.086 260.784 291.239 259.583C290.392 258.381 289.104 257.564 287.656 257.311L183.174 239.151C181.725 238.902 180.237 239.238 179.035 240.085C177.834 240.932 177.017 242.221 176.764 243.669L166.909 300.417C166.773 301.134 166.786 301.872 166.945 302.584C167.105 303.296 167.408 303.969 167.837 304.559C168.253 305.156 168.782 305.665 169.395 306.058C170.008 306.45 170.692 306.717 171.408 306.845L275.89 324.987Z" fill="#405B91"/>
<path d="M226.113 317.755L253.269 292.863L268.302 325.076L226.113 317.755Z" fill="white"/>
<path d="M269.891 326.291L224.095 318.345L253.501 291.328L269.891 326.291ZM228.112 317.166L266.713 323.862L252.965 294.399L228.112 317.166Z" fill="#415B91"/>
<path d="M172.408 308.416L220.56 264.275L247.198 321.416L172.408 308.416Z" fill="white"/>
<path d="M248.787 322.63L170.39 309.006L220.864 262.757L248.787 322.63ZM174.425 307.827L245.609 320.202L220.257 265.829L174.425 307.827Z" fill="#415B91"/>
<path d="M277.8 272.65C277.572 273.962 276.961 275.176 276.043 276.14C275.124 277.104 273.941 277.774 272.642 278.066C271.343 278.357 269.987 278.257 268.745 277.778C267.503 277.299 266.432 276.462 265.665 275.373C264.899 274.285 264.472 272.993 264.44 271.662C264.407 270.331 264.77 269.02 265.482 267.896C266.194 266.771 267.224 265.883 268.441 265.343C269.658 264.804 271.007 264.637 272.319 264.865C273.19 265.016 274.023 265.337 274.77 265.81C275.517 266.283 276.163 266.899 276.672 267.622C277.181 268.345 277.543 269.161 277.736 270.024C277.93 270.886 277.952 271.779 277.8 272.65Z" fill="white"/>
<path d="M271.194 279.168C270.745 279.17 270.296 279.128 269.855 279.043C268.365 278.78 266.987 278.083 265.893 277.038C264.799 275.993 264.039 274.647 263.709 273.171C263.378 271.695 263.492 270.154 264.037 268.742C264.581 267.331 265.531 266.112 266.766 265.239C267.585 264.656 268.512 264.241 269.493 264.02C270.474 263.8 271.49 263.777 272.48 263.954C273.971 264.213 275.352 264.909 276.448 265.953C277.544 266.997 278.306 268.342 278.639 269.819C278.971 271.295 278.858 272.837 278.315 274.25C277.772 275.663 276.822 276.883 275.586 277.757C274.305 278.673 272.769 279.166 271.194 279.168ZM271.194 265.686C270.085 265.685 268.998 266.001 268.062 266.597C267.126 267.193 266.38 268.044 265.912 269.05C265.444 270.055 265.273 271.174 265.419 272.274C265.565 273.374 266.022 274.409 266.737 275.258C267.452 276.106 268.394 276.733 269.453 277.064C270.512 277.394 271.644 277.416 272.715 277.125C273.785 276.834 274.75 276.243 275.496 275.422C276.242 274.6 276.738 273.583 276.925 272.489C277.185 270.972 276.832 269.414 275.946 268.155C275.059 266.897 273.71 266.041 272.194 265.775C271.852 265.716 271.506 265.686 271.159 265.686H271.194Z" fill="#415B91"/>
<path d="M321.007 66.7831H220.078V77.8898H321.007V66.7831Z" fill="#B6D0FB"/>
<path d="M408.706 296.417H375.194V0.142822H408.706V296.417ZM378.479 293.113H405.349V3.46412H378.479V293.113Z" fill="#415B91"/>
<path d="M408.277 32.6594H375.622V0H408.277V32.6594ZM378.979 29.3024H404.921V3.35701H378.979V29.3024Z" fill="#415B91"/>
<path d="M378.492 0.488534L376.119 2.8623L405.421 32.1682L407.794 29.7944L378.492 0.488534Z" fill="#415B91"/>
<path d="M405.421 0.50113L376.119 29.807L378.492 32.1808L407.794 2.87489L405.421 0.50113Z" fill="#415B91"/>
<path d="M408.277 61.9796H375.622V29.3024H408.277V61.9796ZM378.979 58.6226H404.921V32.6594H378.979V58.6226Z" fill="#415B91"/>
<path d="M378.481 29.7974L376.107 32.1711L405.409 61.477L407.783 59.1033L378.481 29.7974Z" fill="#415B91"/>
<path d="M405.409 29.81L376.107 59.1158L378.481 61.4896L407.783 32.1837L405.409 29.81Z" fill="#415B91"/>
<path d="M408.277 91.2821H375.622V58.6227H408.277V91.2821ZM378.979 87.9251H404.921V61.9797H378.979V87.9251Z" fill="#415B91"/>
<path d="M378.482 59.1011L376.109 61.4749L405.411 90.7807L407.784 88.407L378.482 59.1011Z" fill="#415B91"/>
<path d="M405.429 59.1315L376.127 88.4374L378.5 90.8111L407.802 61.5053L405.429 59.1315Z" fill="#415B91"/>
<path d="M408.277 120.602H375.622V87.925H408.277V120.602ZM378.979 117.245H404.921V91.2821H378.979V117.245Z" fill="#415B91"/>
<path d="M378.489 88.4099L376.115 90.7837L405.417 120.09L407.791 117.716L378.489 88.4099Z" fill="#415B91"/>
<path d="M405.417 88.4225L376.115 117.728L378.489 120.102L407.791 90.7963L405.417 88.4225Z" fill="#415B91"/>
<path d="M408.277 149.994H375.622V117.245H408.277V149.994ZM378.979 146.637H404.921V120.602H378.979V146.637Z" fill="#415B91"/>
<path d="M378.49 117.731L376.116 120.105L405.418 149.411L407.792 147.037L378.49 117.731Z" fill="#415B91"/>
<path d="M405.424 117.749L376.122 147.055L378.495 149.429L407.797 120.123L405.424 117.749Z" fill="#415B91"/>
<path d="M408.277 179.225H375.622V146.548H408.277V179.225ZM378.979 175.868H404.921V149.994H378.979V175.868Z" fill="#415B91"/>
<path d="M378.478 147.04L376.105 149.414L405.407 178.72L407.78 176.346L378.478 147.04Z" fill="#415B91"/>
<path d="M405.425 147.071L376.123 176.377L378.496 178.75L407.798 149.445L405.425 147.071Z" fill="#415B91"/>
<path d="M408.277 208.527H375.622V175.868H408.277V208.527ZM378.979 205.17H404.921V179.225H378.979V205.17Z" fill="#415B91"/>
<path d="M378.498 176.344L376.124 178.718L405.426 208.024L407.8 205.65L378.498 176.344Z" fill="#415B91"/>
<path d="M405.413 176.38L376.112 205.686L378.485 208.059L407.787 178.753L405.413 176.38Z" fill="#415B91"/>
<path d="M408.277 237.83H375.622V205.17H408.277V237.83ZM378.979 234.473H404.921V208.527H378.979V234.473Z" fill="#415B91"/>
<path d="M378.486 205.653L376.113 208.027L405.415 237.332L407.788 234.959L378.486 205.653Z" fill="#415B91"/>
<path d="M405.433 205.683L376.131 234.989L378.504 237.363L407.806 208.057L405.433 205.683Z" fill="#415B91"/>
<path d="M408.277 267.15H375.622V234.473H408.277V267.15ZM378.979 263.793H404.921V237.83H378.979V263.793Z" fill="#415B91"/>
<path d="M378.493 234.962L376.119 237.335L405.421 266.641L407.795 264.268L378.493 234.962Z" fill="#415B91"/>
<path d="M405.421 234.992L376.119 264.298L378.493 266.672L407.795 237.366L405.421 234.992Z" fill="#415B91"/>
<path d="M408.277 296.417H375.622V263.793H408.277V296.417ZM378.979 293.06H404.921V267.15H378.979V293.06Z" fill="#415B91"/>
<path d="M378.494 264.265L376.12 266.639L405.422 295.945L407.796 293.571L378.494 264.265Z" fill="#415B91"/>
<path d="M405.422 264.293L376.115 293.593L378.488 295.967L407.795 266.667L405.422 264.293Z" fill="#415B91"/>
<path d="M466.589 61.5333H433.934V28.8739H466.589V61.5333ZM437.29 58.1763H463.232V32.2309H437.29V58.1763Z" fill="#415B91"/>
<path d="M463.716 29.3693L434.419 58.6803L436.793 61.0536L466.09 31.7427L463.716 29.3693Z" fill="#415B91"/>
<path d="M436.8 29.3621L434.427 31.7358L463.729 61.0417L466.102 58.668L436.8 29.3621Z" fill="#415B91"/>
<path d="M437.29 61.5333H404.635V28.8739H437.29V61.5333ZM407.992 58.1763H433.934V32.2309H407.992V58.1763Z" fill="#415B91"/>
<path d="M434.415 29.3615L405.118 58.6725L407.492 61.0458L436.789 31.7348L434.415 29.3615Z" fill="#415B91"/>
<path d="M407.483 29.3633L405.109 31.7371L434.411 61.0429L436.784 58.6692L407.483 29.3633Z" fill="#415B91"/>
<path d="M407.992 61.5333H375.319V28.8739H407.992V61.5333ZM378.675 58.1763H404.635V32.2309H378.675V58.1763Z" fill="#415B91"/>
<path d="M378.675 61.5333H346.02V28.8739H378.675V61.5333ZM349.377 58.1763H375.319V32.2309H349.377V58.1763Z" fill="#415B91"/>
<path d="M375.806 29.3584L346.504 58.6643L348.878 61.0381L378.18 31.7322L375.806 29.3584Z" fill="#415B91"/>
<path d="M348.878 29.371L346.504 31.7448L375.806 61.0506L378.18 58.6769L348.878 29.371Z" fill="#415B91"/>
<path d="M349.377 61.5333H316.704V28.8739H349.377V61.5333ZM320.061 58.1763H346.02V32.2309H320.061V58.1763Z" fill="#415B91"/>
<path d="M346.489 29.3595L317.187 58.6654L319.56 61.0392L348.862 31.7333L346.489 29.3595Z" fill="#415B91"/>
<path d="M319.573 29.3596L317.2 31.7334L346.502 61.0393L348.875 58.6655L319.573 29.3596Z" fill="#415B91"/>
<path d="M320.061 61.5333H287.424V28.8739H320.079L320.061 61.5333ZM290.762 58.1763H316.704V32.2309H290.762V58.1763Z" fill="#415B91"/>
<path d="M289.084 61.5333H259.768C259.438 61.53 259.117 61.4298 258.844 61.2451C258.571 61.0605 258.358 60.7996 258.233 60.4949C258.107 60.1902 258.074 59.8553 258.137 59.5319C258.201 59.2085 258.358 58.9109 258.589 58.6762L287.888 29.356L290.262 31.7309L263.821 58.1762H288.388L317.204 29.356L319.561 31.7309L290.262 61.0511C289.948 61.3604 289.525 61.5336 289.084 61.5333Z" fill="#415B91"/>
<path d="M290.268 29.3482L287.895 31.7219L317.197 61.0278L319.57 58.654L290.268 29.3482Z" fill="#415B91"/>
<path d="M408.831 329.094H375.194V296.417H408.831V329.094ZM378.711 325.737H405.26V299.774H378.658L378.711 325.737Z" fill="#415B91"/>
<path d="M405.831 328.594L375.712 299.292L378.14 296.917L408.277 326.219L405.831 328.594Z" fill="#415B91"/>
<path d="M378.14 328.594L375.712 326.219L405.831 296.917L408.277 299.292L378.14 328.594Z" fill="#415B91"/>
<path d="M408.831 446.411H375.194V413.662H408.831V446.411ZM378.711 443.054H405.26V417.019H378.658L378.711 443.054Z" fill="#415B91"/>
<path d="M405.831 445.839L375.712 416.519L378.14 414.162L408.277 443.465L405.831 445.839Z" fill="#415B91"/>
<path d="M378.14 445.839L375.712 443.465L405.831 414.162L408.277 416.519L378.14 445.839Z" fill="#415B91"/>
<path d="M408.831 355.629H375.194V322.951H408.831V355.629ZM378.711 352.272H405.26V326.308H378.658L378.711 352.272Z" fill="#415B91"/>
<path d="M405.831 355.129L375.712 325.826L378.14 323.451L408.277 352.754L405.831 355.129Z" fill="#415B91"/>
<path d="M378.14 355.129L375.712 352.754L405.831 323.451L408.277 325.826L378.14 355.129Z" fill="#415B91"/>
<path d="M408.831 384.931H375.194V352.272H408.831V384.931ZM378.711 381.574H405.26V355.629H378.658L378.711 381.574Z" fill="#415B91"/>
<path d="M405.831 384.431L375.712 355.129L378.14 352.754L408.277 382.074L405.831 384.431Z" fill="#415B91"/>
<path d="M378.14 384.431L375.712 382.074L405.831 352.754L408.277 355.129L378.14 384.431Z" fill="#415B91"/>
<path d="M408.831 414.269H375.194V381.574H408.831V414.269ZM378.658 410.877H405.26V384.931H378.658V410.877Z" fill="#415B91"/>
<path d="M405.831 413.752L375.712 384.431L378.14 382.074L408.277 411.377L405.831 413.752Z" fill="#415B91"/>
<path d="M378.14 413.752L375.712 411.377L405.831 382.074L408.277 384.431L378.14 413.752Z" fill="#415B91"/>
<path d="M335.254 119.745C335.952 119.689 336.603 119.372 337.078 118.858C337.553 118.343 337.817 117.669 337.817 116.969C337.817 116.268 337.553 115.594 337.078 115.079C336.603 114.565 335.952 114.248 335.254 114.192C334.557 114.248 333.905 114.565 333.431 115.079C332.956 115.594 332.692 116.268 332.692 116.969C332.692 117.669 332.956 118.343 333.431 118.858C333.905 119.372 334.557 119.689 335.254 119.745Z" fill="#405B91"/>
<path d="M459.929 318.505H461.179C461.877 318.449 462.528 318.132 463.003 317.618C463.478 317.103 463.741 316.429 463.741 315.729C463.741 315.028 463.478 314.354 463.003 313.839C462.528 313.325 461.877 313.008 461.179 312.952H459.929C459.231 313.008 458.58 313.325 458.105 313.839C457.63 314.354 457.367 315.028 457.367 315.729C457.367 316.429 457.63 317.103 458.105 317.618C458.58 318.132 459.231 318.449 459.929 318.505Z" fill="#405B91"/>
<path d="M189.601 92.5856C190.299 92.5296 190.95 92.2127 191.425 91.6982C191.9 91.1836 192.164 90.5091 192.164 89.8089C192.164 89.1087 191.9 88.4342 191.425 87.9196C190.95 87.4051 190.299 87.0882 189.601 87.0322C188.903 87.0882 188.252 87.4051 187.777 87.9196C187.303 88.4342 187.039 89.1087 187.039 89.8089C187.039 90.5091 187.303 91.1836 187.777 91.6982C188.252 92.2127 188.903 92.5296 189.601 92.5856Z" fill="#405B91"/>
</g>
<defs>
<clipPath id="clip0_4896_299519">
<rect width="565" height="450" fill="white"/>
</clipPath>
</defs>
</svg>
