<svg width="16" height="16" viewBox="0 0 16 16" fill="none" xmlns="http://www.w3.org/2000/svg">
<path d="M5.33341 13.3334L4.62631 14.0405L5.33341 14.7476L6.04052 14.0405L5.33341 13.3334ZM6.66675 3.66671C7.21903 3.66671 7.66675 3.21899 7.66675 2.66671C7.66675 2.11442 7.21903 1.66671 6.66675 1.66671L6.66675 3.66671ZM1.95964 11.3738L4.62631 14.0405L6.04052 12.6263L3.37385 9.9596L1.95964 11.3738ZM6.04052 14.0405L8.70719 11.3738L7.29297 9.9596L4.62631 12.6263L6.04052 14.0405ZM6.33341 13.3334L6.33341 4.00004L4.33341 4.00004L4.33341 13.3334L6.33341 13.3334ZM6.33341 4.00004C6.33341 3.81595 6.48265 3.66671 6.66675 3.66671L6.66675 1.66671C5.37808 1.66671 4.33341 2.71138 4.33341 4.00004L6.33341 4.00004Z" fill="#0087E2"/>
<path d="M10.6667 2.66663L9.95956 1.95952L10.6667 1.25241L11.3738 1.95952L10.6667 2.66663ZM10.6667 12.6666L9.66667 12.6666L10.6667 12.6666ZM9.33333 15C8.78105 15 8.33333 14.5522 8.33333 14C8.33333 13.4477 8.78105 13 9.33333 13L9.33333 15ZM7.29289 4.62619L9.95956 1.95952L11.3738 3.37373L8.70711 6.0404L7.29289 4.62619ZM11.3738 1.95952L14.0404 4.62618L12.6262 6.0404L9.95956 3.37373L11.3738 1.95952ZM11.6667 2.66663L11.6667 12.6666L9.66667 12.6666L9.66667 2.66663L11.6667 2.66663ZM11.6667 12.6666C11.6667 13.9553 10.622 15 9.33333 15L9.33333 13C9.51743 13 9.66667 12.8507 9.66667 12.6666L11.6667 12.6666Z" fill="#0087E2"/>
</svg>
