<svg width="25" height="24" viewBox="0 0 25 24" fill="none" xmlns="http://www.w3.org/2000/svg">
<path d="M12.8868 20.53C10.5568 20.53 8.22681 20.16 6.01681 19.42C5.17681 19.13 4.53681 18.54 4.25681 17.77C3.96681 17 4.06681 16.15 4.52681 15.39L5.67681 13.48C5.91681 13.08 6.13681 12.28 6.13681 11.81V8.92004C6.13681 5.20004 9.16681 2.17004 12.8868 2.17004C16.6068 2.17004 19.6368 5.20004 19.6368 8.92004V11.81C19.6368 12.27 19.8568 13.08 20.0968 13.49L21.2368 15.39C21.6668 16.11 21.7468 16.98 21.4568 17.77C21.1668 18.56 20.5368 19.16 19.7468 19.42C17.5468 20.16 15.2168 20.53 12.8868 20.53ZM12.8868 3.67004C9.99681 3.67004 7.63681 6.02004 7.63681 8.92004V11.81C7.63681 12.54 7.33681 13.62 6.96681 14.25L5.81681 16.16C5.59681 16.53 5.53681 16.92 5.66681 17.25C5.78681 17.59 6.08681 17.85 6.49681 17.99C10.6768 19.39 15.1068 19.39 19.2868 17.99C19.6468 17.87 19.9268 17.6 20.0568 17.24C20.1868 16.88 20.1568 16.49 19.9568 16.16L18.8068 14.25C18.4268 13.6 18.1368 12.53 18.1368 11.8V8.92004C18.1368 6.02004 15.7868 3.67004 12.8868 3.67004Z" fill="white"/>
<path d="M14.7468 3.94005C14.6768 3.94005 14.6068 3.93005 14.5368 3.91005C14.2468 3.83005 13.9668 3.77005 13.6968 3.73005C12.8468 3.62005 12.0268 3.68005 11.2568 3.91005C10.9768 4.00005 10.6768 3.91005 10.4868 3.70005C10.2968 3.49005 10.2368 3.19005 10.3468 2.92005C10.7568 1.87005 11.7568 1.18005 12.8968 1.18005C14.0368 1.18005 15.0368 1.86005 15.4468 2.92005C15.5468 3.19005 15.4968 3.49005 15.3068 3.70005C15.1568 3.86005 14.9468 3.94005 14.7468 3.94005Z" fill="white"/>
<path d="M12.8867 22.8101C11.8967 22.8101 10.9367 22.4101 10.2367 21.7101C9.53672 21.0101 9.13672 20.0501 9.13672 19.0601H10.6367C10.6367 19.6501 10.8767 20.2301 11.2967 20.6501C11.7167 21.0701 12.2967 21.3101 12.8867 21.3101C14.1267 21.3101 15.1367 20.3001 15.1367 19.0601H16.6367C16.6367 21.1301 14.9567 22.8101 12.8867 22.8101Z" fill="white"/>
</svg>
