<svg width="18" height="17" viewBox="0 0 18 17" fill="none" xmlns="http://www.w3.org/2000/svg">
<path d="M13.1797 9.32031V7.67969H9.82031V4.32031H8.17969V7.67969H4.82031V9.32031H8.17969V12.6797H9.82031V9.32031H13.1797ZM3.10156 2.64062C4.74219 1 6.70833 0.179688 9 0.179688C11.2917 0.179688 13.2448 1 14.8594 2.64062C16.5 4.25521 17.3203 6.20833 17.3203 8.5C17.3203 10.7917 16.5 12.7578 14.8594 14.3984C13.2448 16.013 11.2917 16.8203 9 16.8203C6.70833 16.8203 4.74219 16.013 3.10156 14.3984C1.48698 12.7578 0.679688 10.7917 0.679688 8.5C0.679688 6.20833 1.48698 4.25521 3.10156 2.64062Z" fill="#0087E2"/>
</svg>
