<svg width="24" height="24" viewBox="0 0 24 24" fill="none" xmlns="http://www.w3.org/2000/svg">
<path d="M22 8.75H2C1.86614 8.75 1.75 8.63386 1.75 8.5C1.75 8.36614 1.86614 8.25 2 8.25H22C22.1339 8.25 22.25 8.36614 22.25 8.5C22.25 8.63386 22.1339 8.75 22 8.75Z" fill="#292D32" stroke="#F6F8F9"/>
<path d="M8 16.75H6C5.86614 16.75 5.75 16.6339 5.75 16.5C5.75 16.3661 5.86614 16.25 6 16.25H8C8.13386 16.25 8.25 16.3661 8.25 16.5C8.25 16.6339 8.13386 16.75 8 16.75Z" fill="#292D32" stroke="#F6F8F9"/>
<path d="M14.5 16.75H10.5C10.3661 16.75 10.25 16.6339 10.25 16.5C10.25 16.3661 10.3661 16.25 10.5 16.25H14.5C14.6339 16.25 14.75 16.3661 14.75 16.5C14.75 16.6339 14.6339 16.75 14.5 16.75Z" fill="#292D32" stroke="#F6F8F9"/>
<path d="M22.24 16.1L22.24 16.1013C22.245 18.0584 21.939 19.1604 21.2938 19.8016C20.6472 20.4441 19.5336 20.75 17.56 20.75H6.44C4.46664 20.75 3.35237 20.4442 2.70438 19.8023C2.05787 19.1618 1.75 18.0619 1.75 16.11V7.89C1.75 5.93814 2.05787 4.83817 2.70438 4.19771C3.35237 3.5558 4.46664 3.25 6.44 3.25H17.55C19.5234 3.25 20.6376 3.5558 21.2856 4.19771C21.9321 4.83817 22.24 5.93814 22.24 7.89L22.24 16.1ZM6.44 3.75C5.64792 3.75 4.984 3.78338 4.44027 3.89261C3.89157 4.00283 3.42498 4.198 3.06647 4.55144C2.7073 4.90553 2.50794 5.36781 2.39536 5.91218C2.28399 6.45069 2.25 7.10763 2.25 7.89V16.1C2.25 16.8824 2.28399 17.5393 2.39536 18.0778C2.50794 18.6222 2.7073 19.0845 3.06647 19.4386C3.42498 19.792 3.89157 19.9872 4.44027 20.0974C4.984 20.2066 5.64792 20.24 6.44 20.24H17.55C18.3421 20.24 19.006 20.2066 19.5497 20.0974C20.0984 19.9872 20.565 19.792 20.9235 19.4386C21.2827 19.0845 21.4821 18.6222 21.5946 18.0778C21.706 17.5393 21.74 16.8824 21.74 16.1V7.89C21.74 7.10763 21.706 6.45069 21.5946 5.91218C21.4821 5.36781 21.2827 4.90553 20.9235 4.55144C20.565 4.198 20.0984 4.00283 19.5497 3.89261C19.006 3.78338 18.3421 3.75 17.55 3.75H6.44Z" fill="#292D32" stroke="#F6F8F9"/>
</svg>
