<svg width="25" height="25" viewBox="0 0 25 25" fill="white" xmlns="http://www.w3.org/2000/svg">
<path d="M19.6827 6.28722L13.7683 3.75249C13.2652 3.53687 12.6957 3.53687 12.1926 3.75249L6.27825 6.28722C5.45901 6.63832 4.97098 7.48916 5.08153 8.37358L5.69452 13.2775C5.91467 15.0387 6.79564 16.6505 8.15917 17.7868L11.7001 20.7375C12.4418 21.3556 13.5191 21.3556 14.2608 20.7375L17.8018 17.7868C19.1653 16.6505 20.0463 15.0387 20.2664 13.2775L20.8794 8.37358C20.99 7.48916 20.5019 6.63832 19.6827 6.28722Z" stroke="#0087E2" stroke-width="2" stroke-linecap="round"/>
<path d="M9.98047 12.5028L12.5492 15.0715C12.7723 15.2947 13.1438 15.2579 13.3188 14.9953L16.9805 9.50281" stroke="#0087E2" stroke-width="2" stroke-linecap="round"/>
</svg>
