<svg width="20" height="24" viewBox="0 0 20 24" fill="none" xmlns="http://www.w3.org/2000/svg">
<path d="M15.0156 17.0156V15.5156C15.0156 14.7656 14.4375 14.1562 13.2812 13.6875C12.1562 13.2188 11.0625 12.9844 10 12.9844C8.9375 12.9844 7.82812 13.2188 6.67188 13.6875C5.54688 14.1562 4.98438 14.7656 4.98438 15.5156V17.0156H15.0156ZM11.5938 7.40625C11.1562 6.96875 10.625 6.75 10 6.75C9.375 6.75 8.84375 6.96875 8.40625 7.40625C7.96875 7.84375 7.75 8.375 7.75 9C7.75 9.625 7.96875 10.1562 8.40625 10.5938C8.84375 11.0312 9.375 11.25 10 11.25C10.625 11.25 11.1562 11.0312 11.5938 10.5938C12.0312 10.1562 12.25 9.625 12.25 9C12.25 8.375 12.0312 7.84375 11.5938 7.40625ZM18.0156 3.98438C18.5469 3.98438 19 4.1875 19.375 4.59375C19.7812 5 19.9844 5.46875 19.9844 6V18C19.9844 18.5312 19.7812 19 19.375 19.4062C19 19.8125 18.5469 20.0156 18.0156 20.0156H1.98438C1.45312 20.0156 0.984375 19.8125 0.578125 19.4062C0.203125 19 0.015625 18.5312 0.015625 18V6C0.015625 5.46875 0.203125 5 0.578125 4.59375C0.984375 4.1875 1.45312 3.98438 1.98438 3.98438H18.0156ZM1.98438 24V21.9844H18.0156V24H1.98438ZM18.0156 0V2.01562H1.98438V0H18.0156Z" fill="white"/>
</svg>
