<svg width="16" height="16" viewBox="0 0 16 16" fill="none" xmlns="http://www.w3.org/2000/svg">
<rect x="0.5" y="0.5" width="15" height="15" rx="3.5" fill="#FCFDFF"/>
<path d="M3.44809 10.2323L3.44914 10.2327C3.69459 10.335 3.97355 10.3841 4.28293 10.3841C4.38243 10.3841 4.48381 10.3767 4.58698 10.3622C4.69174 10.3525 4.79061 10.3381 4.8834 10.3188C4.97448 10.3043 5.0577 10.2872 5.13263 10.2672L5.1327 10.2675L5.14142 10.2646C5.21612 10.2396 5.28247 10.2119 5.3343 10.1795L5.41922 10.1265L5.40275 10.0277L5.31186 9.4823L5.27929 9.28688L5.10003 9.37124C5.03442 9.40212 4.93639 9.43422 4.8012 9.46577C4.6745 9.49533 4.53003 9.51079 4.36683 9.51079C4.16667 9.51079 4.00584 9.48253 3.87975 9.43166C3.75169 9.37534 3.64835 9.29862 3.5669 9.2021C3.48857 9.10377 3.4276 8.98348 3.38591 8.8384C3.34789 8.68974 3.32821 8.52367 3.32821 8.33932C3.32821 7.92076 3.41971 7.62765 3.57934 7.43643C3.74068 7.24862 3.9745 7.14688 4.3039 7.14688C4.43875 7.14688 4.56291 7.15993 4.67689 7.18526L4.67689 7.18527L4.678 7.18551C4.79961 7.21156 4.90229 7.24554 4.98754 7.28613L5.1506 7.36378L5.197 7.18924L5.34383 6.63688L5.37779 6.50913L5.25532 6.45938C5.09586 6.3946 4.92925 6.3474 4.75575 6.31766C4.58436 6.28828 4.41274 6.27355 4.24097 6.27355C3.95674 6.27355 3.69344 6.32596 3.45332 6.43312C3.21945 6.53492 3.01962 6.68068 2.85567 6.87002C2.69289 7.05336 2.56731 7.27057 2.47773 7.51941L2.47771 7.5194L2.47685 7.52193C2.39165 7.7725 2.35 8.04543 2.35 8.33932C2.35 8.63234 2.38908 8.90436 2.46901 9.15414L2.469 9.15415L2.46928 9.15499C2.54981 9.4016 2.67156 9.61811 2.83537 9.80239L2.83535 9.8024L2.83691 9.8041C3.00586 9.98841 3.21024 10.1311 3.44809 10.2323ZM7.54962 10.2078L7.55089 10.2082C7.73266 10.2705 7.93604 10.3002 8.15889 10.3002C8.43762 10.3002 8.6904 10.2504 8.91377 10.1467C9.13848 10.0444 9.32911 9.90039 9.48372 9.71486C9.63764 9.53016 9.75133 9.31163 9.8264 9.06195C9.90597 8.81277 9.94499 8.54355 9.94499 8.25542C9.94499 7.9474 9.89864 7.66611 9.803 7.41372C9.71269 7.15852 9.58092 6.93942 9.40616 6.75952C9.23204 6.58028 9.02275 6.44292 8.78044 6.34701C8.53652 6.25045 8.26567 6.20363 7.97011 6.20363C7.6603 6.20363 7.38248 6.2274 7.1378 6.27623C6.90829 6.3184 6.7146 6.35852 6.55738 6.39664L6.44272 6.42443V6.54241V11.3598V11.5098H6.59272H7.24296H7.39296V11.3598V10.1481C7.44135 10.1682 7.49367 10.188 7.54962 10.2078ZM12.0978 10.0663V7.12591H13.3462H13.4962V6.97591V6.43054V6.28054H13.3462H12.0978V6.11591C12.0978 5.85657 12.1541 5.67027 12.25 5.54113L12.2512 5.53951C12.3328 5.42655 12.4875 5.34997 12.7659 5.34997C12.9066 5.34997 13.0183 5.36327 13.1039 5.38664L13.1039 5.38677L13.1102 5.3882C13.2078 5.41038 13.2737 5.43282 13.3141 5.453L13.4875 5.53975L13.5279 5.35001L13.6467 4.79066L13.6726 4.6689L13.5577 4.62102C13.4868 4.59149 13.3761 4.56357 13.2362 4.53559C13.0882 4.505 12.9144 4.49062 12.7169 4.49062C12.2037 4.49062 11.796 4.62521 11.5286 4.92486C11.2675 5.21296 11.1476 5.61276 11.1476 6.10193V10.0663V10.2163H11.2976H11.9478H12.0978V10.0663ZM8.69167 7.37802C8.86792 7.56994 8.96678 7.85485 8.96678 8.25542C8.96678 8.43168 8.94917 8.595 8.91473 8.74587C8.88141 8.88728 8.8282 9.00891 8.75653 9.11277C8.68751 9.20827 8.59709 9.28583 8.48244 9.34529C8.37785 9.39737 8.24393 9.42688 8.07499 9.42688C7.91527 9.42688 7.77153 9.39963 7.64202 9.34702C7.53581 9.30387 7.45383 9.26163 7.39296 9.22145V7.12346C7.43023 7.1166 7.47271 7.10998 7.52067 7.10372C7.62346 7.0909 7.77001 7.08396 7.96312 7.08396C8.27663 7.08396 8.51409 7.18465 8.69167 7.37802Z" fill="#D2DAE2" stroke="#00C853" stroke-width="0.3"/>
<rect x="0.5" y="0.5" width="15" height="15" rx="3.5" stroke="#00C853"/>
</svg>
