<svg width="24" height="18" viewBox="0 0 24 18" fill="none" xmlns="http://www.w3.org/2000/svg">
<path d="M6.98438 9V11.0156H5.01562V9H6.98438ZM6.98438 5.01562V6.98438H5.01562V5.01562H6.98438ZM18.9844 9V11.0156H8.01562V9H18.9844ZM18.9844 5.01562V6.98438H8.01562V5.01562H18.9844ZM21 14.0156V2.01562H3V14.0156H21ZM21 0C21.5312 0 22 0.203125 22.4062 0.609375C22.8125 1.01563 23.0156 1.48438 23.0156 2.01562L22.9688 14.0156C22.9688 14.5469 22.7656 15.0156 22.3594 15.4219C21.9844 15.7969 21.5312 15.9844 21 15.9844H15.9844V18H8.01562V15.9844H3C2.46875 15.9844 2 15.7969 1.59375 15.4219C1.1875 15.0156 0.984375 14.5469 0.984375 14.0156V2.01562C0.984375 1.48438 1.1875 1.01563 1.59375 0.609375C2 0.203125 2.46875 0 3 0H21Z" fill="white"/>
</svg>
