<svg width="16" height="16" viewBox="0 0 16 16" fill="none" xmlns="http://www.w3.org/2000/svg">
<rect x="0.5" y="0.5" width="15" height="15" rx="3.5" fill="white"/>
<path d="M4.4916 10.2096C4.68135 10.2096 4.85508 10.1865 5.01091 10.1378C5.14928 10.0982 5.25777 10.0615 5.32665 10.0271L5.43259 9.97409L5.40563 9.85875L5.29847 9.40035L5.25875 9.23041L5.0967 9.29523C5.05826 9.3106 4.98823 9.33785 4.88587 9.37722C4.80961 9.40438 4.69648 9.42142 4.53923 9.42142C4.45603 9.42142 4.38933 9.41097 4.33662 9.3934C4.29107 9.37821 4.25526 9.35425 4.22615 9.32095C4.1968 9.2835 4.1694 9.22699 4.14945 9.14414C4.12915 9.05588 4.11771 8.93932 4.11771 8.79155V7.51277H5.1405H5.2905V7.36277V6.89841V6.74841H5.1405H4.11771V5.93994V5.76193L3.94228 5.79211L3.38863 5.88737L3.26406 5.9088V6.03519V8.7975C3.26406 9.01121 3.28047 9.20396 3.3146 9.37462L3.31454 9.37463L3.31553 9.37893C3.35532 9.55136 3.42307 9.70315 3.52188 9.8302C3.62245 9.95951 3.75339 10.0562 3.9106 10.1209L3.91057 10.121L3.91549 10.1228C4.07653 10.1826 4.2703 10.2096 4.4916 10.2096ZM7.8646 8.67611L7.86457 8.6763L7.87203 8.67727C7.89753 8.6806 7.91936 8.68409 7.93789 8.68756V9.37316C7.90354 9.37764 7.86534 9.38157 7.82314 9.38486C7.72704 9.38865 7.61494 9.39058 7.48661 9.39058C7.28435 9.39058 7.14211 9.35546 7.0468 9.2994C6.9783 9.25594 6.92818 9.17526 6.92818 9.01074C6.92818 8.92727 6.94805 8.8788 6.97199 8.84934L6.97204 8.84938L6.97472 8.84587C7.01208 8.79703 7.05687 8.76083 7.11029 8.73553L7.1103 8.73556L7.11316 8.73413C7.1769 8.70226 7.24591 8.68121 7.32108 8.67137C7.4109 8.66015 7.4938 8.65472 7.56996 8.65472C7.69146 8.65472 7.78902 8.66237 7.8646 8.67611ZM7.91186 7.74618C7.92721 7.81375 7.93581 7.88286 7.93756 7.95365C7.92198 7.95119 7.90579 7.94875 7.889 7.94633C7.8321 7.93358 7.77232 7.92518 7.70991 7.9208C7.64603 7.91248 7.58348 7.90822 7.52233 7.90822C7.33743 7.90822 7.15965 7.92714 6.98933 7.96546C6.81635 8.00438 6.66093 8.06586 6.52528 8.15177C6.38563 8.24021 6.27349 8.35715 6.19006 8.50084L6.19002 8.50081L6.18826 8.50403C6.1063 8.65348 6.06857 8.82624 6.06857 9.0167C6.06857 9.21148 6.10099 9.38717 6.17205 9.53876C6.24158 9.68708 6.34044 9.81024 6.46862 9.9052L6.4686 9.90524L6.47158 9.90734C6.59627 9.99508 6.74113 10.0576 6.90346 10.0971C7.06355 10.136 7.23636 10.1549 7.42113 10.1549C7.54816 10.1549 7.67516 10.1488 7.80212 10.1366C7.93015 10.1286 8.04882 10.1185 8.15804 10.1064C8.26634 10.0944 8.36319 10.0823 8.44844 10.0701L8.44846 10.0702L8.45406 10.0692C8.54114 10.0533 8.60776 10.0416 8.6543 10.0338L8.77964 10.0129V9.88587V7.95107C8.77964 7.76539 8.75857 7.59302 8.71476 7.43512C8.66955 7.26814 8.59173 7.12204 8.47993 7.0002C8.36971 6.8717 8.22471 6.77782 8.05147 6.71528C7.87838 6.64738 7.67258 6.61637 7.43899 6.61637C7.23708 6.61637 7.04757 6.63279 6.87089 6.66632C6.70347 6.69429 6.56887 6.72634 6.47913 6.76622L6.37552 6.81227L6.39156 6.92451L6.45704 7.38291L6.48432 7.57383L6.66265 7.5004C6.71491 7.47887 6.80337 7.45529 6.93522 7.43202L6.93522 7.43206L6.93857 7.43139C7.06548 7.40601 7.21601 7.39263 7.39136 7.39263C7.52093 7.39263 7.61047 7.41273 7.66957 7.44228L7.66947 7.44247L7.67684 7.44568C7.74671 7.47605 7.7955 7.51573 7.82937 7.56263L7.82932 7.56266L7.83181 7.56592C7.86874 7.61421 7.89591 7.67287 7.91155 7.7448L7.91154 7.7448L7.91186 7.74618ZM11.8374 10.0065L11.8788 10.0895L12.0668 9.10004L12.1906 9.01528C12.1903 9.01496 12.1901 9.01465 12.1899 9.01433C12.0129 8.75585 11.8388 8.50979 11.6679 8.27617L12.6066 6.92954L12.7709 6.69376H12.4835H11.8942H11.8152L11.7705 6.75884L11.1505 7.66158L10.5358 6.7593L10.4911 6.69376H10.4118H9.78671H9.49947L9.66362 6.92948L10.6258 8.31118C10.4552 8.54082 10.2832 8.78134 10.1098 9.0327L10.1095 9.03307C9.91582 9.31552 9.74779 9.59476 9.60572 9.8708L9.49318 10.0895H9.73909H10.3106H10.4014L10.4435 10.0091C10.4856 9.92863 10.5378 9.83574 10.6004 9.73017C10.6628 9.62485 10.7292 9.51744 10.7996 9.40795C10.8738 9.2947 10.9499 9.18343 11.028 9.07412L11.028 9.07413L11.0294 9.07209C11.0663 9.01856 11.1028 8.96684 11.1387 8.91693C11.1747 8.966 11.2113 9.01641 11.2482 9.06816C11.3264 9.17764 11.4027 9.28909 11.477 9.40252L11.477 9.40253L11.4783 9.40454C11.5522 9.51333 11.6199 9.61988 11.6818 9.72421C11.7439 9.82909 11.7957 9.92313 11.8374 10.0065Z" fill="#D2DAE2" stroke="#FF1744" stroke-width="0.3"/>
<rect x="0.5" y="0.5" width="15" height="15" rx="3.5" stroke="#FF1744"/>
</svg>
