<svg width="20" height="21" viewBox="0 0 20 21" fill="none" xmlns="http://www.w3.org/2000/svg">
<path d="M3.125 10.5C3.29076 10.5 3.44973 10.4342 3.56694 10.3169C3.68415 10.1997 3.75 10.0408 3.75 9.875C3.75 9.70924 3.68415 9.55027 3.56694 9.43306C3.44973 9.31585 3.29076 9.25 3.125 9.25C2.95924 9.25 2.80027 9.31585 2.68306 9.43306C2.56585 9.55027 2.5 9.70924 2.5 9.875C2.5 10.0408 2.56585 10.1997 2.68306 10.3169C2.80027 10.4342 2.95924 10.5 3.125 10.5Z" fill="#FF7600"/>
<path d="M6.25 1.75C5.58696 1.75 4.95107 2.01339 4.48223 2.48223C4.01339 2.95107 3.75 3.58696 3.75 4.25V6.75H2.5C1.83696 6.75 1.20107 7.01339 0.732233 7.48223C0.263392 7.95107 0 8.58696 0 9.25V13C0 13.663 0.263392 14.2989 0.732233 14.7678C1.20107 15.2366 1.83696 15.5 2.5 15.5H3.75V16.75C3.75 17.413 4.01339 18.0489 4.48223 18.5178C4.95107 18.9866 5.58696 19.25 6.25 19.25H13.75C14.413 19.25 15.0489 18.9866 15.5178 18.5178C15.9866 18.0489 16.25 17.413 16.25 16.75V15.5H17.5C18.163 15.5 18.7989 15.2366 19.2678 14.7678C19.7366 14.2989 20 13.663 20 13V9.25C20 8.58696 19.7366 7.95107 19.2678 7.48223C18.7989 7.01339 18.163 6.75 17.5 6.75H16.25V4.25C16.25 3.58696 15.9866 2.95107 15.5178 2.48223C15.0489 2.01339 14.413 1.75 13.75 1.75H6.25ZM5 4.25C5 3.91848 5.1317 3.60054 5.36612 3.36612C5.60054 3.1317 5.91848 3 6.25 3H13.75C14.0815 3 14.3995 3.1317 14.6339 3.36612C14.8683 3.60054 15 3.91848 15 4.25V6.75H5V4.25ZM6.25 10.5C5.58696 10.5 4.95107 10.7634 4.48223 11.2322C4.01339 11.7011 3.75 12.337 3.75 13V14.25H2.5C2.16848 14.25 1.85054 14.1183 1.61612 13.8839C1.3817 13.6495 1.25 13.3315 1.25 13V9.25C1.25 8.91848 1.3817 8.60054 1.61612 8.36612C1.85054 8.1317 2.16848 8 2.5 8H17.5C17.8315 8 18.1495 8.1317 18.3839 8.36612C18.6183 8.60054 18.75 8.91848 18.75 9.25V13C18.75 13.3315 18.6183 13.6495 18.3839 13.8839C18.1495 14.1183 17.8315 14.25 17.5 14.25H16.25V13C16.25 12.337 15.9866 11.7011 15.5178 11.2322C15.0489 10.7634 14.413 10.5 13.75 10.5H6.25ZM15 13V16.75C15 17.0815 14.8683 17.3995 14.6339 17.6339C14.3995 17.8683 14.0815 18 13.75 18H6.25C5.91848 18 5.60054 17.8683 5.36612 17.6339C5.1317 17.3995 5 17.0815 5 16.75V13C5 12.6685 5.1317 12.3505 5.36612 12.1161C5.60054 11.8817 5.91848 11.75 6.25 11.75H13.75C14.0815 11.75 14.3995 11.8817 14.6339 12.1161C14.8683 12.3505 15 12.6685 15 13Z" fill="#FF7600"/>
</svg>
