<svg width="15" height="15" viewBox="0 0 15 15" fill="none" xmlns="http://www.w3.org/2000/svg">
<path d="M2.09375 12.9062C2.76042 13.5938 3.52083 14.0833 4.375 14.375C5.25 14.6458 6.13542 14.7292 7.03125 14.625C7.92708 14.5208 8.76042 14.2292 9.53125 13.75L8.5625 12.7812C7.95833 13.0938 7.32292 13.2708 6.65625 13.3125C6.01042 13.3542 5.36458 13.2708 4.71875 13.0625C4.09375 12.8333 3.53125 12.4688 3.03125 11.9688C2.57292 11.5104 2.22917 11 2 10.4375C1.77083 9.85417 1.65625 9.26042 1.65625 8.65625C1.65625 8.05208 1.77083 7.46875 2 6.90625C2.22917 6.34375 2.57292 5.83333 3.03125 5.375C3.48958 4.91667 4 4.58333 4.5625 4.375C5.14583 4.14583 5.73958 4.03125 6.34375 4.03125V6L9 3.34375L6.34375 0.65625V2.6875C5.57292 2.6875 4.8125 2.83333 4.0625 3.125C3.33333 3.39583 2.67708 3.83333 2.09375 4.4375C1.51042 5.02083 1.07292 5.67708 0.78125 6.40625C0.489583 7.13542 0.34375 7.89583 0.34375 8.6875C0.34375 9.45833 0.489583 10.2083 0.78125 10.9375C1.07292 11.6667 1.51042 12.3229 2.09375 12.9062ZM6.34375 8.65625L10.3438 12.6562L14.3438 8.65625L10.3438 4.65625L6.34375 8.65625Z" fill="#FCFDFF"/>
</svg>
