<svg width="22" height="19" viewBox="0 0 22 19" fill="none" xmlns="http://www.w3.org/2000/svg">
<path d="M10 15.9844C10 15.0156 10.1719 14.1094 10.5156 13.2656C10.8906 12.4219 11.3906 11.6875 12.0156 11.0625C12.6719 10.4062 13.4219 9.90625 14.2656 9.5625C15.1094 9.1875 16.0156 9 16.9844 9C17.5469 9 18.0781 9.0625 18.5781 9.1875C19.0781 9.3125 19.5469 9.48438 19.9844 9.70312V3C19.9844 2.4375 19.7812 1.96875 19.375 1.59375C19 1.1875 18.5469 0.984375 18.0156 0.984375H1.98438C1.45312 0.984375 0.984375 1.1875 0.578125 1.59375C0.203125 1.96875 0.015625 2.4375 0.015625 3V15C0.015625 15.5625 0.203125 16.0469 0.578125 16.4531C0.984375 16.8281 1.45312 17.0156 1.98438 17.0156H10.0938C10.0312 16.6406 10 16.2969 10 15.9844ZM1.98438 3L10 8.01562L18.0156 3V5.01562L10 9.98438L1.98438 5.01562V3ZM15.3438 18.9844L11.7812 15.4688L13.1875 14.0625L15.3438 16.1719L19.5625 11.9531L21.0156 13.3594L15.3438 18.9844Z" fill="black" fill-opacity="0.54"/>
</svg>
