<svg width="20" height="19" viewBox="0 0 20 19" fill="none" xmlns="http://www.w3.org/2000/svg">
<path d="M18.0156 9.67188V7.98438L11.5 11.3125L4.98438 7.98438V9.67188L11.5 13L18.0156 9.67188ZM18.0156 6.01562C18.5469 6.01562 19 6.21875 19.375 6.625C19.7812 7 19.9844 7.45312 19.9844 7.98438V16.9844C19.9844 17.5156 19.7812 17.9844 19.375 18.3906C19 18.7969 18.5469 19 18.0156 19H4.98438C4.45312 19 3.98438 18.7969 3.57812 18.3906C3.20312 17.9844 3.01562 17.5156 3.01562 16.9844V7.98438C3.01562 7.45312 3.20312 7 3.57812 6.625C3.98438 6.21875 4.45312 6.01562 4.98438 6.01562H18.0156ZM16.8438 4.98438H14.2188L8.5 1.98438L1.98438 5.40625V15.0156C1.45312 15.0156 0.984375 14.8125 0.578125 14.4062C0.203125 14 0.015625 13.5312 0.015625 13V5.17188C0.015625 4.51562 0.28125 4.0625 0.8125 3.8125L8.5 0.015625L16.0469 3.8125C16.5156 4.09375 16.7812 4.48437 16.8438 4.98438Z" fill="black" fill-opacity="0.54"/>
</svg>
