<svg width="24" height="24" viewBox="0 0 24 24" fill="none" xmlns="http://www.w3.org/2000/svg">
<path d="M19.2936 12.4135L19.6471 12.0599L19.2936 11.7064L17.2636 9.67639C17.1688 9.58165 17.1688 9.41823 17.2636 9.32349C17.3583 9.22876 17.5217 9.22876 17.6165 9.32349L17.97 8.96994L17.6165 9.32349L20.1765 11.8835C20.2712 11.9782 20.2712 12.1416 20.1765 12.2364L17.6165 14.7964C17.5652 14.8477 17.5046 14.8699 17.44 14.8699C17.3755 14.8699 17.3148 14.8477 17.2636 14.7964C17.1688 14.7016 17.1688 14.5382 17.2636 14.4435L19.2936 12.4135Z" fill="#A8A8A8"/>
<path d="M19.2936 12.4135L19.6471 12.0599L19.2936 11.7064L17.2636 9.67639C17.1688 9.58165 17.1688 9.41823 17.2636 9.32349C17.3583 9.22876 17.5217 9.22876 17.6165 9.32349L17.97 8.96994L17.6165 9.32349L20.1765 11.8835C20.2712 11.9782 20.2712 12.1416 20.1765 12.2364L17.6165 14.7964C17.5652 14.8477 17.5046 14.8699 17.44 14.8699C17.3755 14.8699 17.3148 14.8477 17.2636 14.7964C17.1688 14.7016 17.1688 14.5382 17.2636 14.4435L19.2936 12.4135Z" fill="black" fill-opacity="0.2"/>
<path d="M19.2936 12.4135L19.6471 12.0599L19.2936 11.7064L17.2636 9.67639C17.1688 9.58165 17.1688 9.41823 17.2636 9.32349C17.3583 9.22876 17.5217 9.22876 17.6165 9.32349L17.97 8.96994L17.6165 9.32349L20.1765 11.8835C20.2712 11.9782 20.2712 12.1416 20.1765 12.2364L17.6165 14.7964C17.5652 14.8477 17.5046 14.8699 17.44 14.8699C17.3755 14.8699 17.3148 14.8477 17.2636 14.7964C17.1688 14.7016 17.1688 14.5382 17.2636 14.4435L19.2936 12.4135Z" stroke="#A8A8A8"/>
<path d="M19.2936 12.4135L19.6471 12.0599L19.2936 11.7064L17.2636 9.67639C17.1688 9.58165 17.1688 9.41823 17.2636 9.32349C17.3583 9.22876 17.5217 9.22876 17.6165 9.32349L17.97 8.96994L17.6165 9.32349L20.1765 11.8835C20.2712 11.9782 20.2712 12.1416 20.1765 12.2364L17.6165 14.7964C17.5652 14.8477 17.5046 14.8699 17.44 14.8699C17.3755 14.8699 17.3148 14.8477 17.2636 14.7964C17.1688 14.7016 17.1688 14.5382 17.2636 14.4435L19.2936 12.4135Z" stroke="black" stroke-opacity="0.2"/>
<path d="M19.93 12.3101H9.76001C9.62615 12.3101 9.51001 12.1939 9.51001 12.0601C9.51001 11.9262 9.62615 11.8101 9.76001 11.8101H19.93C20.0639 11.8101 20.18 11.9262 20.18 12.0601C20.18 12.1939 20.0639 12.3101 19.93 12.3101Z" fill="#A8A8A8"/>
<path d="M19.93 12.3101H9.76001C9.62615 12.3101 9.51001 12.1939 9.51001 12.0601C9.51001 11.9262 9.62615 11.8101 9.76001 11.8101H19.93C20.0639 11.8101 20.18 11.9262 20.18 12.0601C20.18 12.1939 20.0639 12.3101 19.93 12.3101Z" fill="black" fill-opacity="0.2"/>
<path d="M19.93 12.3101H9.76001C9.62615 12.3101 9.51001 12.1939 9.51001 12.0601C9.51001 11.9262 9.62615 11.8101 9.76001 11.8101H19.93C20.0639 11.8101 20.18 11.9262 20.18 12.0601C20.18 12.1939 20.0639 12.3101 19.93 12.3101Z" stroke="#A8A8A8"/>
<path d="M19.93 12.3101H9.76001C9.62615 12.3101 9.51001 12.1939 9.51001 12.0601C9.51001 11.9262 9.62615 11.8101 9.76001 11.8101H19.93C20.0639 11.8101 20.18 11.9262 20.18 12.0601C20.18 12.1939 20.0639 12.3101 19.93 12.3101Z" stroke="black" stroke-opacity="0.2"/>
<path d="M11.76 20.75C6.61001 20.75 3.01001 17.15 3.01001 12C3.01001 6.85 6.61001 3.25 11.76 3.25C12.17 3.25 12.51 3.59 12.51 4C12.51 4.41 12.17 4.75 11.76 4.75C7.49001 4.75 4.51001 7.73 4.51001 12C4.51001 16.27 7.49001 19.25 11.76 19.25C12.17 19.25 12.51 19.59 12.51 20C12.51 20.41 12.17 20.75 11.76 20.75Z" fill="#A8A8A8"/>
<path d="M11.76 20.75C6.61001 20.75 3.01001 17.15 3.01001 12C3.01001 6.85 6.61001 3.25 11.76 3.25C12.17 3.25 12.51 3.59 12.51 4C12.51 4.41 12.17 4.75 11.76 4.75C7.49001 4.75 4.51001 7.73 4.51001 12C4.51001 16.27 7.49001 19.25 11.76 19.25C12.17 19.25 12.51 19.59 12.51 20C12.51 20.41 12.17 20.75 11.76 20.75Z" fill="black" fill-opacity="0.2"/>
</svg>
